<?xml version="1.0" encoding="UTF-8"?>
<!DOCTYPE svg PUBLIC "-//W3C//DTD SVG 1.1//EN" "http://www.w3.org/Graphics/SVG/1.1/DTD/svg11.dtd">
<svg xmlns="http://www.w3.org/2000/svg" version="1.1" width="1200px" height="1200px" style="shape-rendering:geometricPrecision; text-rendering:geometricPrecision; image-rendering:optimizeQuality; fill-rule:evenodd; clip-rule:evenodd" xmlns:xlink="http://www.w3.org/1999/xlink">
<g><path style="opacity:1" fill="#fefefe" d="M -0.5,-0.5 C 399.5,-0.5 799.5,-0.5 1199.5,-0.5C 1199.5,399.5 1199.5,799.5 1199.5,1199.5C 799.5,1199.5 399.5,1199.5 -0.5,1199.5C -0.5,799.5 -0.5,399.5 -0.5,-0.5 Z"/></g>
<g><path style="opacity:1" fill="#ccced2" d="M 611.5,401.5 C 592.5,401.5 573.5,401.5 554.5,401.5C 567.019,400.797 579.686,400.13 592.5,399.5C 598.93,399.576 605.264,400.243 611.5,401.5 Z"/></g>
<g><path style="opacity:1" fill="#696a6d" d="M 815.5,603.5 C 815.167,603.5 814.833,603.5 814.5,603.5C 814.188,582.329 813.521,561.329 812.5,540.5C 812.333,527.829 812.5,515.162 813,502.5C 816.049,470.161 815.882,437.828 812.5,405.5C 779.851,405.262 747.184,405.095 714.5,405C 702.355,403.45 690.355,403.283 678.5,404.5C 677.833,404.5 677.167,404.5 676.5,404.5C 668.846,403.93 661.179,403.596 653.5,403.5C 649.18,402.834 644.68,402.501 640,402.5C 566.164,403.71 492.33,405.043 418.5,406.5C 412.976,406.464 407.642,405.964 402.5,405C 401.245,416.079 400.411,427.245 400,438.5C 399.257,474.842 399.424,511.175 400.5,547.5C 400.784,549.415 400.451,551.081 399.5,552.5C 398.148,536.035 397.481,519.535 397.5,503C 398.087,471.501 398.587,440.001 399,408.5C 399.251,406.567 399.751,404.734 400.5,403C 406.932,403.686 413.432,404.186 420,404.5C 464.844,403.859 509.678,402.859 554.5,401.5C 573.5,401.5 592.5,401.5 611.5,401.5C 620.834,401.256 630.167,400.922 639.5,400.5C 674.692,401.131 709.859,402.131 745,403.5C 760.171,403.336 775.337,403.003 790.5,402.5C 798.592,402.368 806.592,403.035 814.5,404.5C 816.033,421.956 816.7,439.456 816.5,457C 816.562,479.702 815.895,502.369 814.5,525C 815.215,551.162 815.548,577.329 815.5,603.5 Z"/></g>
<g><path style="opacity:1" fill="#d6d8db" d="M 653.5,403.5 C 661.179,403.596 668.846,403.93 676.5,404.5C 678.292,405.309 680.292,405.809 682.5,406C 678.437,406.038 674.603,406.872 671,408.5C 667.045,408.047 663.212,407.38 659.5,406.5C 653.711,406.833 648.544,407.833 644,409.5C 642.582,406.999 641.582,407.332 641,410.5C 638.139,410.092 637.972,410.925 640.5,413C 639.294,414.018 639.627,414.518 641.5,414.5C 642.647,414.182 643.481,413.516 644,412.5C 644.689,413.357 645.522,414.023 646.5,414.5C 650.512,413.745 653.012,413.745 654,414.5C 654.75,415.126 655.584,415.626 656.5,416C 656.167,416.333 655.833,416.667 655.5,417C 657.7,419.234 659.533,421.734 661,424.5C 663.481,423.978 665.814,423.978 668,424.5C 669.309,426.891 670.309,426.891 671,424.5C 686.91,426.091 702.577,427.758 718,429.5C 721.641,428.554 725.307,427.554 729,426.5C 730.016,427.634 730.683,427.301 731,425.5C 734.371,426.551 737.871,426.718 741.5,426C 744.213,424.334 746.879,422.667 749.5,421C 748.675,419.312 747.675,419.145 746.5,420.5C 744.833,419.833 743.167,419.167 741.5,418.5C 740.167,419.5 738.833,420.5 737.5,421.5C 736.402,420.385 735.235,420.385 734,421.5C 733.433,419.333 731.6,417.833 728.5,417C 729.833,416.333 729.833,415.667 728.5,415C 725.922,412.793 723.089,410.96 720,409.5C 719.667,409.833 719.333,410.167 719,410.5C 713.43,409.059 707.764,407.726 702,406.5C 698.957,407.546 695.957,407.212 693,405.5C 690.599,406.602 688.099,406.769 685.5,406C 686.167,405.667 686.833,405.333 687.5,405C 684.518,404.502 681.518,404.335 678.5,404.5C 690.355,403.283 702.355,403.45 714.5,405C 747.184,405.095 779.851,405.262 812.5,405.5C 815.882,437.828 816.049,470.161 813,502.5C 812.5,515.162 812.333,527.829 812.5,540.5C 813.037,550.195 812.37,559.695 810.5,569C 810.559,570.436 810.892,571.769 811.5,573C 810.833,577.667 810.167,582.333 809.5,587C 810.122,588.569 810.456,590.236 810.5,592C 809.086,599.073 807.419,606.073 805.5,613C 806.433,619.517 806.766,626.517 806.5,634C 804.616,637.846 803.949,641.846 804.5,646C 804.918,648.763 805.584,651.43 806.5,654C 803.751,655.346 803.417,656.68 805.5,658C 804.636,659.137 803.636,660.47 802.5,662C 803.38,663.356 803.714,664.856 803.5,666.5C 806.797,666.329 807.131,666.995 804.5,668.5C 805.711,669.72 805.711,670.887 804.5,672C 806.146,673.555 806.479,675.221 805.5,677C 806.167,679.667 806.833,682.333 807.5,685C 806.952,693.881 806.952,703.047 807.5,712.5C 806.85,717.313 805.517,721.813 803.5,726C 804.022,726.561 804.355,727.228 804.5,728C 802.315,729.853 800.482,732.02 799,734.5C 798.593,738.284 797.759,741.951 796.5,745.5C 796.667,746.5 796.833,747.5 797,748.5C 797.654,747.304 798.154,747.304 798.5,748.5C 798.167,749.167 797.833,749.833 797.5,750.5C 798.833,751.167 800.167,751.833 801.5,752.5C 802.641,753.425 802.641,754.259 801.5,755C 803.049,756.214 804.215,757.714 805,759.5C 804.949,772.978 806.115,786.311 808.5,799.5C 807.869,803.034 807.202,806.534 806.5,810C 803.96,812.007 801.293,812.673 798.5,812C 794.255,816.022 789.255,818.189 783.5,818.5C 777.448,818.269 771.448,817.602 765.5,816.5C 765.611,815.883 765.944,815.383 766.5,815C 763.165,812.659 760.998,809.493 760,805.5C 758.853,806.458 757.853,806.125 757,804.5C 756.667,804.833 756.333,805.167 756,805.5C 754.333,804.833 752.667,804.167 751,803.5C 744.249,806.882 738.582,805.549 734,799.5C 732.984,800.634 732.317,800.301 732,798.5C 731.333,799.167 730.667,799.833 730,800.5C 727.568,799.707 725.234,799.374 723,799.5C 720.478,801.181 717.645,802.181 714.5,802.5C 713.353,802.182 712.519,801.516 712,800.5C 711.586,800.957 711.086,801.291 710.5,801.5C 708.556,800.811 706.556,800.311 704.5,800C 701.934,797.305 699.101,795.805 696,795.5C 695.683,797.301 695.016,797.634 694,796.5C 693.667,797.167 693.333,797.833 693,798.5C 692.333,797.167 691.667,797.167 691,798.5C 686.002,796.17 681.002,793.837 676,791.5C 674.463,792.114 673.13,792.114 672,791.5C 671.097,792.701 669.931,793.535 668.5,794C 665.668,794.212 663.002,794.379 660.5,794.5C 659.086,793.376 657.586,792.376 656,791.5C 653.667,791.5 651.333,791.5 649,791.5C 648.29,790.027 647.124,789.36 645.5,789.5C 645.778,787.654 645.111,786.32 643.5,785.5C 643.511,786.441 643.011,787.108 642,787.5C 638.955,786.526 635.621,786.859 632,788.5C 627.675,788.252 623.675,787.252 620,785.5C 618.306,788.786 616.473,791.286 614.5,793C 614.341,795.563 614.675,798.23 615.5,801C 613.602,801.64 613.268,802.973 614.5,805C 613.496,808.698 612.496,812.365 611.5,816C 610.584,816.374 609.75,816.874 609,817.5C 603.846,816.555 598.513,816.222 593,816.5C 591.077,817.316 589.077,817.983 587,818.5C 578.004,818.808 569.171,818.475 560.5,817.5C 559.692,817.808 559.025,818.308 558.5,819C 561.695,819.181 564.695,819.681 567.5,820.5C 557.494,820.666 547.494,820.5 537.5,820C 516.229,817.655 494.896,816.155 473.5,815.5C 466.338,815.926 459.171,816.26 452,816.5C 436.865,815.154 421.698,814.487 406.5,814.5C 403.378,797.66 401.545,780.66 401,763.5C 401.145,723.171 401.312,682.837 401.5,642.5C 402.461,640.735 402.795,638.735 402.5,636.5C 405.205,636.62 405.872,635.62 404.5,633.5C 407.789,629.256 408.123,625.256 405.5,621.5C 405.737,618.937 406.237,618.937 407,621.5C 407.863,619.251 407.363,617.418 405.5,616C 407.589,612.983 408.923,609.649 409.5,606C 408.404,603.177 407.737,600.177 407.5,597C 409.658,596.041 409.991,594.541 408.5,592.5C 408.632,590.399 409.632,588.899 411.5,588C 411.167,587.667 410.833,587.333 410.5,587C 411.956,585.255 413.289,583.422 414.5,581.5C 413.833,581.167 413.167,580.833 412.5,580.5C 413.115,578.884 414.115,577.551 415.5,576.5C 413.268,576.433 410.934,575.6 408.5,574C 408.833,573.667 409.167,573.333 409.5,573C 407.559,571.184 406.892,569.184 407.5,567C 405.342,566.041 405.009,564.541 406.5,562.5C 404.469,560.443 404.469,558.61 406.5,557C 406.112,555.475 406.112,553.808 406.5,552C 405.833,551.667 405.167,551.333 404.5,551C 408.308,549.702 409.308,547.702 407.5,545C 409.223,544.477 410.556,543.477 411.5,542C 410.308,539.945 410.308,537.945 411.5,536C 409.699,535.683 409.366,535.016 410.5,534C 408.606,532.921 408.273,531.587 409.5,530C 406.007,528.522 405.674,526.522 408.5,524C 407.167,524 405.833,524 404.5,524C 404.833,523.667 405.167,523.333 405.5,523C 402.719,519.594 403.052,516.594 406.5,514C 405.833,513 405.167,512 404.5,511C 406.5,510.333 407.833,509 408.5,507C 408.229,503.363 407.896,499.697 407.5,496C 410.167,494 410.167,492 407.5,490C 408.293,488.915 408.96,487.748 409.5,486.5C 408.877,484.097 408.544,481.597 408.5,479C 410.158,478.275 410.658,477.108 410,475.5C 409.444,477.595 408.944,477.762 408.5,476C 408.905,475.055 409.572,474.388 410.5,474C 409.009,471.978 409.342,470.312 411.5,469C 410.584,468.626 409.75,468.126 409,467.5C 408.691,463.678 408.524,460.178 408.5,457C 409.5,456 410.5,455 411.5,454C 410.833,453.667 410.167,453.333 409.5,453C 410.13,451.108 411.13,449.441 412.5,448C 410.473,446.604 410.14,444.938 411.5,443C 410.5,442.667 409.5,442.333 408.5,442C 409.672,441.581 410.672,440.915 411.5,440C 409.987,437.546 410.654,435.879 413.5,435C 413.034,432.114 412.367,428.947 411.5,425.5C 412.165,423.899 412.499,422.399 412.5,421C 410.396,420.511 410.062,419.345 411.5,417.5C 412.832,415.337 414.666,413.67 417,412.5C 419.289,413.022 421.456,412.355 423.5,410.5C 424.425,411.641 425.259,411.641 426,410.5C 426.333,411.167 426.667,411.833 427,412.5C 428.775,409.956 430.608,409.956 432.5,412.5C 432.833,411.833 433.167,411.167 433.5,410.5C 434.192,411.025 434.692,411.692 435,412.5C 437.423,410.006 439.756,410.006 442,412.5C 442.667,411.833 443.333,411.167 444,410.5C 448.859,412.6 453.526,412.6 458,410.5C 459.333,411.833 460.667,411.833 462,410.5C 462.667,411.167 463.333,411.833 464,412.5C 469.942,411.443 475.942,411.443 482,412.5C 484.471,409.266 487.304,409.266 490.5,412.5C 490.833,411.833 491.167,411.167 491.5,410.5C 494.084,411.393 496.751,411.726 499.5,411.5C 499.202,414.336 499.869,414.836 501.5,413C 500.167,411.16 500.334,410.66 502,411.5C 502.667,410.833 503.333,410.167 504,409.5C 505.101,411.394 506.434,412.061 508,411.5C 508.739,410.426 509.739,409.759 511,409.5C 514.207,409.327 517.207,409.66 520,410.5C 523,409.833 526,409.167 529,408.5C 529.772,408.645 530.439,408.978 531,409.5C 532.353,408.296 534.019,407.629 536,407.5C 542.062,408.326 547.728,408.659 553,408.5C 555,407.833 557,407.167 559,406.5C 559.667,407.833 560.333,407.833 561,406.5C 561.667,409.167 562.333,409.167 563,406.5C 563.691,408.891 564.691,408.891 566,406.5C 567.018,408.564 568.351,408.898 570,407.5C 572.867,409.62 575.867,409.62 579,407.5C 579.333,407.833 579.667,408.167 580,408.5C 581.983,406.003 581.15,404.836 577.5,405C 591.889,404.07 606.222,404.403 620.5,406C 622.649,407.152 624.482,408.652 626,410.5C 626.065,408.117 626.898,407.45 628.5,408.5C 633.207,406.108 638.04,405.108 643,405.5C 646.285,403.863 649.785,403.196 653.5,403.5 Z"/></g>
<g><path style="opacity:1" fill="#dadcdf" d="M 676.5,404.5 C 677.167,404.5 677.833,404.5 678.5,404.5C 681.518,404.335 684.518,404.502 687.5,405C 686.833,405.333 686.167,405.667 685.5,406C 688.099,406.769 690.599,406.602 693,405.5C 695.957,407.212 698.957,407.546 702,406.5C 707.764,407.726 713.43,409.059 719,410.5C 719.333,410.167 719.667,409.833 720,409.5C 723.089,410.96 725.922,412.793 728.5,415C 729.833,415.667 729.833,416.333 728.5,417C 731.6,417.833 733.433,419.333 734,421.5C 735.235,420.385 736.402,420.385 737.5,421.5C 738.833,420.5 740.167,419.5 741.5,418.5C 743.167,419.167 744.833,419.833 746.5,420.5C 747.675,419.145 748.675,419.312 749.5,421C 746.879,422.667 744.213,424.334 741.5,426C 737.871,426.718 734.371,426.551 731,425.5C 730.683,427.301 730.016,427.634 729,426.5C 725.307,427.554 721.641,428.554 718,429.5C 702.577,427.758 686.91,426.091 671,424.5C 670.309,426.891 669.309,426.891 668,424.5C 665.814,423.978 663.481,423.978 661,424.5C 659.533,421.734 657.7,419.234 655.5,417C 655.833,416.667 656.167,416.333 656.5,416C 655.584,415.626 654.75,415.126 654,414.5C 653.012,413.745 650.512,413.745 646.5,414.5C 645.522,414.023 644.689,413.357 644,412.5C 643.481,413.516 642.647,414.182 641.5,414.5C 639.627,414.518 639.294,414.018 640.5,413C 637.972,410.925 638.139,410.092 641,410.5C 641.582,407.332 642.582,406.999 644,409.5C 648.544,407.833 653.711,406.833 659.5,406.5C 663.212,407.38 667.045,408.047 671,408.5C 674.603,406.872 678.437,406.038 682.5,406C 680.292,405.809 678.292,405.309 676.5,404.5 Z"/></g>
<g><path style="opacity:1" fill="#d0d2d6" d="M 706.5,430.5 C 702.03,431.486 697.363,431.819 692.5,431.5C 677.629,431.745 662.963,432.745 648.5,434.5C 613.457,434.287 578.457,435.287 543.5,437.5C 532.833,437.5 522.167,437.5 511.5,437.5C 502.166,436.907 492.832,436.241 483.5,435.5C 478.486,435.723 473.486,436.056 468.5,436.5C 457.469,436.74 446.469,436.407 435.5,435.5C 445.035,431.902 455.035,430.069 465.5,430C 470.97,426.342 476.803,424.842 483,425.5C 483.333,424.833 483.667,424.167 484,423.5C 485.873,422.911 487.54,423.578 489,425.5C 490.194,424.57 491.527,423.903 493,423.5C 496.087,424.307 499.087,424.64 502,424.5C 502.308,423.692 502.808,423.025 503.5,422.5C 505.928,422.227 508.095,422.56 510,423.5C 510.605,421.519 511.605,421.185 513,422.5C 515.124,421.773 517.291,421.106 519.5,420.5C 522.053,420.706 524.553,421.039 527,421.5C 528,420.5 529,419.5 530,418.5C 534.797,419.302 539.464,419.635 544,419.5C 544.317,417.699 544.984,417.366 546,418.5C 547,417.833 548,417.167 549,416.5C 550.525,416.888 552.192,416.888 554,416.5C 554.667,417.167 555.333,417.833 556,418.5C 557.268,418.384 558.602,418.051 560,417.5C 564.463,420.402 569.13,423.069 574,425.5C 574.689,424.643 575.522,423.977 576.5,423.5C 578.803,424.953 580.97,425.953 583,426.5C 583.915,425.672 584.581,424.672 585,423.5C 585.667,426.167 586.333,426.167 587,423.5C 587.974,425.878 588.641,425.544 589,422.5C 589.308,423.308 589.808,423.975 590.5,424.5C 594.52,422.214 598.687,420.214 603,418.5C 603.414,418.957 603.914,419.291 604.5,419.5C 609.319,416.041 614.319,415.708 619.5,418.5C 618.313,420.975 618.647,423.309 620.5,425.5C 621.274,426.711 622.107,426.711 623,425.5C 623.333,426.167 623.667,426.833 624,427.5C 627.866,426.722 631.866,426.389 636,426.5C 639.218,428.414 642.218,428.748 645,427.5C 647.333,428.167 649.667,428.833 652,429.5C 653,429.167 654,428.833 655,428.5C 658.8,429.199 662.633,429.865 666.5,430.5C 668.48,430.697 670.48,430.03 672.5,428.5C 680.363,429.821 688.197,429.821 696,428.5C 699.285,430.137 702.785,430.804 706.5,430.5 Z"/></g>
<g><path style="opacity:1" fill="#d9dbde" d="M 455.5,417.5 C 457.01,418.836 458.677,420.003 460.5,421C 459.747,422.487 458.914,422.654 458,421.5C 457,422.833 456,424.167 455,425.5C 454.667,425.167 454.333,424.833 454,424.5C 452.054,426.994 449.721,427.661 447,426.5C 443.281,429.576 439.447,430.243 435.5,428.5C 434.128,430.868 432.128,432.534 429.5,433.5C 428.359,434.425 428.359,435.259 429.5,436C 428.833,436.667 428.167,437.333 427.5,438C 429.588,442.22 431.088,447.054 432,452.5C 432.333,449.5 432.667,446.5 433,443.5C 433.667,453.167 433.667,462.833 433,472.5C 432.834,474.532 431.667,476.365 429.5,478C 429.918,485.193 430.251,492.527 430.5,500C 429.672,500.915 428.672,501.581 427.5,502C 427.863,508.789 427.863,515.956 427.5,523.5C 424.972,524.517 424.972,525.684 427.5,527C 426.511,531.739 424.844,536.239 422.5,540.5C 421.304,540.154 421.304,539.654 422.5,539C 420.259,539.271 418.259,538.271 416.5,536C 416.957,535.586 417.291,535.086 417.5,534.5C 416.438,533.23 415.438,532.063 414.5,531C 416.991,530.374 416.991,529.541 414.5,528.5C 415.681,526.197 415.681,523.863 414.5,521.5C 414.76,519.813 415.427,518.313 416.5,517C 415.743,515.488 414.743,514.154 413.5,513C 417.936,514.137 418.603,512.804 415.5,509C 415.833,508.667 416.167,508.333 416.5,508C 415.5,507.667 414.5,507.333 413.5,507C 414.711,506.213 415.711,505.546 416.5,505C 416.241,503.739 415.574,502.739 414.5,502C 415.299,500.251 414.632,498.918 412.5,498C 413.428,497.612 414.095,496.945 414.5,496C 411.879,489.527 412.212,483.027 415.5,476.5C 414.253,474.958 414.253,473.458 415.5,472C 414.833,471.333 414.167,470.667 413.5,470C 416.167,467 416.167,464 413.5,461C 415.071,456.501 416.071,452.168 416.5,448C 414.109,446.691 414.109,445.691 416.5,445C 416.167,444.667 415.833,444.333 415.5,444C 419.006,440.813 419.339,437.813 416.5,435C 419.167,433.667 419.167,432.333 416.5,431C 418.891,429.691 418.891,428.691 416.5,428C 417.654,425.427 419.32,423.261 421.5,421.5C 422.197,423.385 423.197,423.718 424.5,422.5C 425.478,422.977 426.311,423.643 427,424.5C 428.268,424.384 429.602,424.051 431,423.5C 431.333,424.167 431.667,424.833 432,425.5C 434.398,425.042 436.064,423.708 437,421.5C 439.454,423.013 441.121,422.346 442,419.5C 444.857,418.554 447.857,418.554 451,419.5C 452.622,418.901 454.122,418.234 455.5,417.5 Z"/></g>
<g><path style="opacity:1" fill="#fefefe" d="M 775.5,567.5 C 775.376,582.67 775.043,597.837 774.5,613C 774.387,626.258 775.387,639.425 777.5,652.5C 777.5,673.5 777.5,694.5 777.5,715.5C 777.483,717.028 776.816,717.528 775.5,717C 772.333,712.5 768.5,708.667 764,705.5C 762.224,702.059 760.057,698.892 757.5,696C 748.45,688.615 739.116,681.615 729.5,675C 727.044,673.289 724.377,671.956 721.5,671C 707.575,669.647 693.909,670.981 680.5,675C 676.411,677.127 672.577,679.627 669,682.5C 666.036,686.466 662.703,690.133 659,693.5C 657.829,695.842 656.662,698.176 655.5,700.5C 642.98,693.642 632.313,684.642 623.5,673.5C 613.29,662.791 602.29,652.957 590.5,644C 578.412,630.576 565.078,618.576 550.5,608C 543.505,601.486 537.339,594.319 532,586.5C 527.594,581.589 522.76,577.255 517.5,573.5C 510.136,566.393 502.636,559.393 495,552.5C 481.417,562.747 469.084,574.414 458,587.5C 449.843,597.814 442.176,608.48 435,619.5C 431.542,609.042 430.708,598.375 432.5,587.5C 431.504,580.527 430.838,573.527 430.5,566.5C 433.178,550.741 435.011,534.741 436,518.5C 436.5,491.502 436.667,464.502 436.5,437.5C 437.5,437.5 438.5,437.5 439.5,437.5C 461.677,437.902 484.01,438.235 506.5,438.5C 528.167,439.833 549.833,439.833 571.5,438.5C 584.444,436.926 597.444,435.926 610.5,435.5C 624.178,436.695 637.845,436.695 651.5,435.5C 667.924,434.376 684.258,433.376 700.5,432.5C 713.84,432.474 727.173,432.141 740.5,431.5C 753.507,432.39 766.507,433.39 779.5,434.5C 778.359,453.159 777.192,471.826 776,490.5C 775.5,516.165 775.333,541.831 775.5,567.5 Z"/></g>
<g><path style="opacity:1" fill="#8a8b8e" d="M 692.5,431.5 C 694.948,432.473 697.615,432.806 700.5,432.5C 684.258,433.376 667.924,434.376 651.5,435.5C 650.791,434.596 649.791,434.263 648.5,434.5C 662.963,432.745 677.629,431.745 692.5,431.5 Z"/></g>
<g><path style="opacity:1" fill="#818285" d="M 648.5,434.5 C 649.791,434.263 650.791,434.596 651.5,435.5C 637.845,436.695 624.178,436.695 610.5,435.5C 597.444,435.926 584.444,436.926 571.5,438.5C 561.985,438.827 552.652,438.494 543.5,437.5C 578.457,435.287 613.457,434.287 648.5,434.5 Z"/></g>
<g><path style="opacity:1" fill="#808184" d="M 511.5,437.5 C 510.081,438.451 508.415,438.784 506.5,438.5C 484.01,438.235 461.677,437.902 439.5,437.5C 449.348,437.827 459.014,437.494 468.5,436.5C 473.486,436.056 478.486,435.723 483.5,435.5C 492.832,436.241 502.166,436.907 511.5,437.5 Z"/></g>
<g><path style="opacity:1" fill="#999a9c" d="M 511.5,437.5 C 522.167,437.5 532.833,437.5 543.5,437.5C 552.652,438.494 561.985,438.827 571.5,438.5C 549.833,439.833 528.167,439.833 506.5,438.5C 508.415,438.784 510.081,438.451 511.5,437.5 Z"/></g>
<g><path style="opacity:1" fill="#57585b" d="M 435.5,435.5 C 446.469,436.407 457.469,436.74 468.5,436.5C 459.014,437.494 449.348,437.827 439.5,437.5C 438.5,437.5 437.5,437.5 436.5,437.5C 435.833,448.167 435.167,458.833 434.5,469.5C 434.172,457.988 434.505,446.654 435.5,435.5 Z"/></g>
<g><path style="opacity:1" fill="#6e6f72" d="M 771.5,432.5 C 776.294,431.903 780.627,432.57 784.5,434.5C 783.5,434.5 782.5,434.5 781.5,434.5C 778.102,478.069 776.436,521.736 776.5,565.5C 776.672,566.492 776.338,567.158 775.5,567.5C 775.333,541.831 775.5,516.165 776,490.5C 777.192,471.826 778.359,453.159 779.5,434.5C 766.507,433.39 753.507,432.39 740.5,431.5C 727.173,432.141 713.84,432.474 700.5,432.5C 697.615,432.806 694.948,432.473 692.5,431.5C 697.363,431.819 702.03,431.486 706.5,430.5C 728.28,428.666 749.947,429.333 771.5,432.5 Z"/></g>
<g><path style="opacity:1" fill="#7c7d7f" d="M 436.5,437.5 C 436.667,464.502 436.5,491.502 436,518.5C 435.011,534.741 433.178,550.741 430.5,566.5C 430.672,565.508 430.338,564.842 429.5,564.5C 434.441,532.998 436.107,501.331 434.5,469.5C 435.167,458.833 435.833,448.167 436.5,437.5 Z"/></g>
<g><path style="opacity:1" fill="#9e9fa3" d="M 400.5,547.5 C 401.487,552.305 401.821,557.305 401.5,562.5C 401.167,562.5 400.833,562.5 400.5,562.5C 399.949,559.193 399.616,555.86 399.5,552.5C 400.451,551.081 400.784,549.415 400.5,547.5 Z"/></g>
<g><path style="opacity:1" fill="#67686b" d="M 673.5,491.5 C 698.749,489.262 714.916,500.262 722,524.5C 726.024,540.069 722.691,553.735 712,565.5C 709.108,568.057 705.941,570.224 702.5,572C 696.156,573.339 689.823,574.505 683.5,575.5C 679.445,575.425 675.445,574.925 671.5,574C 662.925,570.713 654.925,566.379 647.5,561C 641.067,553.799 638.067,545.299 638.5,535.5C 639.1,511.912 650.766,497.245 673.5,491.5 Z"/></g>
<g><path style="opacity:1" fill="#cdcfd3" d="M 697.5,496.5 C 707.542,501.211 714.375,508.878 718,519.5C 723.787,533.615 722.453,546.949 714,559.5C 708.01,567.749 699.843,572.249 689.5,573C 683.442,573.739 677.442,573.406 671.5,572C 664.374,568.603 657.374,564.937 650.5,561C 644.307,556.409 641.307,550.242 641.5,542.5C 644.724,548.928 649.057,554.761 654.5,560C 659.705,561.954 664.705,564.287 669.5,567C 680.329,570.274 690.996,569.941 701.5,566C 707.887,559.946 713.554,553.279 718.5,546C 718.078,536.346 716.244,526.512 713,516.5C 709.186,506.851 702.353,500.517 692.5,497.5C 694.287,497.057 695.954,496.724 697.5,496.5 Z"/></g>
<g><path style="opacity:1" fill="#d5d6da" d="M 697.5,496.5 C 695.954,496.724 694.287,497.057 692.5,497.5C 702.353,500.517 709.186,506.851 713,516.5C 716.244,526.512 718.078,536.346 718.5,546C 713.554,553.279 707.887,559.946 701.5,566C 690.996,569.941 680.329,570.274 669.5,567C 664.705,564.287 659.705,561.954 654.5,560C 649.057,554.761 644.724,548.928 641.5,542.5C 638.401,510.858 652.735,494.692 684.5,494C 689.015,494.146 693.348,494.979 697.5,496.5 Z"/></g>
<g><path style="opacity:1" fill="#dadbdf" d="M 675.5,499.5 C 677.01,500.728 678.51,500.728 680,499.5C 681.791,501.513 683.125,501.513 684,499.5C 684.333,500.167 684.667,500.833 685,501.5C 691.191,500.286 697.024,501.786 702.5,506C 702.167,506.333 701.833,506.667 701.5,507C 704.854,512.283 708.52,517.617 712.5,523C 711.427,525.591 711.427,528.258 712.5,531C 711.863,533.245 711.03,535.412 710,537.5C 709.667,537.167 709.333,536.833 709,536.5C 708.696,538.441 707.863,540.107 706.5,541.5C 706.709,542.086 707.043,542.586 707.5,543C 704.445,545.076 703.445,547.742 704.5,551C 703.25,554.411 701.916,557.411 700.5,560C 696.856,562.93 693.19,563.763 689.5,562.5C 680.446,567.512 672.279,566.512 665,559.5C 664.667,559.833 664.333,560.167 664,560.5C 661.539,558.446 658.706,556.946 655.5,556C 655.833,555.667 656.167,555.333 656.5,555C 653.945,553.742 653.278,551.909 654.5,549.5C 658.252,548.015 661.585,548.681 664.5,551.5C 665.716,550.998 666.883,550.665 668,550.5C 668.333,551.167 668.667,551.833 669,552.5C 670.873,550.291 673.04,548.458 675.5,547C 675.181,542.72 673.848,538.554 671.5,534.5C 672.002,533.284 672.335,532.117 672.5,531C 670.683,529.2 669.516,527.034 669,524.5C 662.67,519.529 657.836,521.029 654.5,529C 655.108,531.184 654.441,533.184 652.5,535C 653.167,535.333 653.833,535.667 654.5,536C 653.887,538.858 653.554,542.025 653.5,545.5C 652.758,546.287 651.925,546.953 651,547.5C 649.581,546.54 648.081,545.707 646.5,545C 647.5,544.667 648.5,544.333 649.5,544C 647.641,543.316 645.974,542.316 644.5,541C 644.379,537.364 644.379,533.697 644.5,530C 642.675,528.534 642.175,526.701 643,524.5C 643.333,525.5 643.667,526.5 644,527.5C 645.237,523.105 647.57,519.438 651,516.5C 652.009,514.975 652.509,513.308 652.5,511.5C 659.771,506.743 667.437,502.743 675.5,499.5 Z"/></g>
<g><path style="opacity:1" fill="#d1d3d7" d="M 653.5,403.5 C 649.785,403.196 646.285,403.863 643,405.5C 638.04,405.108 633.207,406.108 628.5,408.5C 626.898,407.45 626.065,408.117 626,410.5C 624.482,408.652 622.649,407.152 620.5,406C 606.222,404.403 591.889,404.07 577.5,405C 581.15,404.836 581.983,406.003 580,408.5C 579.667,408.167 579.333,407.833 579,407.5C 575.867,409.62 572.867,409.62 570,407.5C 568.351,408.898 567.018,408.564 566,406.5C 564.691,408.891 563.691,408.891 563,406.5C 562.333,409.167 561.667,409.167 561,406.5C 560.333,407.833 559.667,407.833 559,406.5C 557,407.167 555,407.833 553,408.5C 547.728,408.659 542.062,408.326 536,407.5C 534.019,407.629 532.353,408.296 531,409.5C 530.439,408.978 529.772,408.645 529,408.5C 526,409.167 523,409.833 520,410.5C 517.207,409.66 514.207,409.327 511,409.5C 509.739,409.759 508.739,410.426 508,411.5C 506.434,412.061 505.101,411.394 504,409.5C 503.333,410.167 502.667,410.833 502,411.5C 500.334,410.66 500.167,411.16 501.5,413C 499.869,414.836 499.202,414.336 499.5,411.5C 496.751,411.726 494.084,411.393 491.5,410.5C 491.167,411.167 490.833,411.833 490.5,412.5C 487.304,409.266 484.471,409.266 482,412.5C 475.942,411.443 469.942,411.443 464,412.5C 463.333,411.833 462.667,411.167 462,410.5C 460.667,411.833 459.333,411.833 458,410.5C 453.526,412.6 448.859,412.6 444,410.5C 443.333,411.167 442.667,411.833 442,412.5C 439.756,410.006 437.423,410.006 435,412.5C 434.692,411.692 434.192,411.025 433.5,410.5C 433.167,411.167 432.833,411.833 432.5,412.5C 430.608,409.956 428.775,409.956 427,412.5C 426.667,411.833 426.333,411.167 426,410.5C 425.259,411.641 424.425,411.641 423.5,410.5C 421.456,412.355 419.289,413.022 417,412.5C 414.666,413.67 412.832,415.337 411.5,417.5C 410.062,419.345 410.396,420.511 412.5,421C 412.499,422.399 412.165,423.899 411.5,425.5C 412.367,428.947 413.034,432.114 413.5,435C 410.654,435.879 409.987,437.546 411.5,440C 410.672,440.915 409.672,441.581 408.5,442C 409.5,442.333 410.5,442.667 411.5,443C 410.14,444.938 410.473,446.604 412.5,448C 411.13,449.441 410.13,451.108 409.5,453C 410.167,453.333 410.833,453.667 411.5,454C 410.5,455 409.5,456 408.5,457C 408.524,460.178 408.691,463.678 409,467.5C 409.75,468.126 410.584,468.626 411.5,469C 409.342,470.312 409.009,471.978 410.5,474C 409.572,474.388 408.905,475.055 408.5,476C 408.944,477.762 409.444,477.595 410,475.5C 410.658,477.108 410.158,478.275 408.5,479C 408.544,481.597 408.877,484.097 409.5,486.5C 408.96,487.748 408.293,488.915 407.5,490C 410.167,492 410.167,494 407.5,496C 407.896,499.697 408.229,503.363 408.5,507C 407.833,509 406.5,510.333 404.5,511C 405.167,512 405.833,513 406.5,514C 403.052,516.594 402.719,519.594 405.5,523C 405.167,523.333 404.833,523.667 404.5,524C 405.833,524 407.167,524 408.5,524C 405.674,526.522 406.007,528.522 409.5,530C 408.273,531.587 408.606,532.921 410.5,534C 409.366,535.016 409.699,535.683 411.5,536C 410.308,537.945 410.308,539.945 411.5,542C 410.556,543.477 409.223,544.477 407.5,545C 409.308,547.702 408.308,549.702 404.5,551C 405.167,551.333 405.833,551.667 406.5,552C 406.112,553.808 406.112,555.475 406.5,557C 404.469,558.61 404.469,560.443 406.5,562.5C 405.009,564.541 405.342,566.041 407.5,567C 406.892,569.184 407.559,571.184 409.5,573C 409.167,573.333 408.833,573.667 408.5,574C 410.934,575.6 413.268,576.433 415.5,576.5C 414.115,577.551 413.115,578.884 412.5,580.5C 413.167,580.833 413.833,581.167 414.5,581.5C 413.289,583.422 411.956,585.255 410.5,587C 410.833,587.333 411.167,587.667 411.5,588C 409.632,588.899 408.632,590.399 408.5,592.5C 409.991,594.541 409.658,596.041 407.5,597C 407.737,600.177 408.404,603.177 409.5,606C 408.923,609.649 407.589,612.983 405.5,616C 407.363,617.418 407.863,619.251 407,621.5C 406.237,618.937 405.737,618.937 405.5,621.5C 408.123,625.256 407.789,629.256 404.5,633.5C 405.872,635.62 405.205,636.62 402.5,636.5C 402.795,638.735 402.461,640.735 401.5,642.5C 401.5,637.167 401.5,631.833 401.5,626.5C 401.5,605.167 401.5,583.833 401.5,562.5C 401.821,557.305 401.487,552.305 400.5,547.5C 399.424,511.175 399.257,474.842 400,438.5C 400.411,427.245 401.245,416.079 402.5,405C 407.642,405.964 412.976,406.464 418.5,406.5C 492.33,405.043 566.164,403.71 640,402.5C 644.68,402.501 649.18,402.834 653.5,403.5 Z"/></g>
<g><path style="opacity:1" fill="#d0d2d6" d="M 516.5,573.5 C 519.833,577.167 523.167,580.833 526.5,584.5C 526.103,585.525 525.437,585.692 524.5,585C 518.145,580.277 511.978,576.111 506,572.5C 505.439,573.022 504.772,573.355 504,573.5C 499.973,570.71 495.807,569.043 491.5,568.5C 488.022,570.076 486.188,572.409 486,575.5C 481.149,577.99 479.649,581.49 481.5,586C 480.475,588.071 479.642,590.238 479,592.5C 478.667,592.167 478.333,591.833 478,591.5C 470.879,595.949 465.546,601.283 462,607.5C 459.132,610.736 456.632,614.236 454.5,618C 451.982,619.502 449.482,621.002 447,622.5C 446.667,622.167 446.333,621.833 446,621.5C 442.851,626.569 439.017,627.735 434.5,625C 435.252,624.329 435.586,623.496 435.5,622.5C 450.753,596.23 470.42,573.564 494.5,554.5C 501.238,561.574 508.571,567.908 516.5,573.5 Z"/></g>
<g><path style="opacity:1" fill="#6b6b6e" d="M 517.5,573.5 C 517.167,573.5 516.833,573.5 516.5,573.5C 508.571,567.908 501.238,561.574 494.5,554.5C 470.42,573.564 450.753,596.23 435.5,622.5C 434.542,622.047 433.708,621.381 433,620.5C 429.591,609.689 428.758,598.689 430.5,587.5C 429.113,579.829 428.78,572.162 429.5,564.5C 430.338,564.842 430.672,565.508 430.5,566.5C 430.838,573.527 431.504,580.527 432.5,587.5C 430.708,598.375 431.542,609.042 435,619.5C 442.176,608.48 449.843,597.814 458,587.5C 469.084,574.414 481.417,562.747 495,552.5C 502.636,559.393 510.136,566.393 517.5,573.5 Z"/></g>
<g><path style="opacity:1" fill="#76777a" d="M 776.5,565.5 C 776.742,589.329 776.909,613.329 777,637.5C 778.149,640.393 778.649,643.393 778.5,646.5C 778.795,648.735 778.461,650.735 777.5,652.5C 775.387,639.425 774.387,626.258 774.5,613C 775.043,597.837 775.376,582.67 775.5,567.5C 776.338,567.158 776.672,566.492 776.5,565.5 Z"/></g>
<g><path style="opacity:1" fill="#d9dbde" d="M 639.5,693.5 C 641.332,694.248 642.999,695.248 644.5,696.5C 644.047,697.458 643.381,698.292 642.5,699C 643.448,699.483 644.448,699.649 645.5,699.5C 647.081,703.356 649.415,706.856 652.5,710C 651.631,712.368 649.965,713.868 647.5,714.5C 642.603,712.361 637.603,709.527 632.5,706C 632.833,705.667 633.167,705.333 633.5,705C 632.167,705 630.833,705 629.5,705C 623.511,696.679 616.511,689.345 608.5,683C 596.825,679.853 586.658,675.353 578,669.5C 576.584,670.573 575.25,670.573 574,669.5C 572.581,670.46 571.081,671.293 569.5,672C 569.833,672.333 570.167,672.667 570.5,673C 569.386,674.57 568.053,675.903 566.5,677C 566.833,677.333 567.167,677.667 567.5,678C 566.109,679.02 564.609,679.853 563,680.5C 560.275,679.128 557.609,678.128 555,677.5C 552.239,679.017 550.406,678.184 549.5,675C 548.551,674.383 547.718,674.549 547,675.5C 546.535,674.069 545.701,672.903 544.5,672C 542.253,670.691 539.92,670.025 537.5,670C 540.167,670.667 540.167,671.333 537.5,672C 538.167,673.333 539.167,674.333 540.5,675C 539.833,676 539.167,677 538.5,678C 540.455,680.168 541.121,682.502 540.5,685C 539.747,686.487 538.914,686.654 538,685.5C 536.647,686.685 535.48,688.019 534.5,689.5C 532.23,690.694 530.063,690.694 528,689.5C 526.312,688.675 526.145,687.675 527.5,686.5C 526.624,685.749 525.624,685.249 524.5,685C 524.833,684.667 525.167,684.333 525.5,684C 524.313,682.981 523.313,681.814 522.5,680.5C 517.625,680.917 513.625,679.084 510.5,675C 510.833,674.667 511.167,674.333 511.5,674C 508.556,671.131 506.056,667.964 504,664.5C 500.089,665.907 496.256,665.073 492.5,662C 492.949,659.771 492.949,658.104 492.5,657C 490.57,654.742 489.07,652.242 488,649.5C 487.667,649.833 487.333,650.167 487,650.5C 486.202,647.761 484.535,645.761 482,644.5C 479.025,649.734 475.859,655.401 472.5,661.5C 469.618,662.881 467.618,665.048 466.5,668C 466.5,671.333 466.5,674.667 466.5,678C 467.5,678.833 468.5,679.667 469.5,680.5C 469.291,681.086 468.957,681.586 468.5,682C 469.082,684.916 470.082,686.916 471.5,688C 471.297,690.406 470.297,692.406 468.5,694C 469.458,695.147 469.125,696.147 467.5,697C 467.833,697.333 468.167,697.667 468.5,698C 467.692,698.308 467.025,698.808 466.5,699.5C 467.875,702.497 467.542,705.664 465.5,709C 467.629,712.754 470.129,716.254 473,719.5C 473.333,719.167 473.667,718.833 474,718.5C 475.316,721.047 477.149,721.713 479.5,720.5C 480.192,721.025 480.692,721.692 481,722.5C 483.438,721.134 483.938,721.634 482.5,724C 482.759,725.261 483.426,726.261 484.5,727C 483.09,727.368 482.09,728.201 481.5,729.5C 482.397,729.669 483.397,730.002 484.5,730.5C 483.5,731.833 482.5,733.167 481.5,734.5C 482.831,735.592 483.664,736.926 484,738.5C 484.342,736.381 485.175,736.047 486.5,737.5C 485.215,740.315 483.215,741.148 480.5,740C 479.167,740.667 479.167,741.333 480.5,742C 478.757,743.11 477.424,744.61 476.5,746.5C 475.5,747.833 474.5,747.833 473.5,746.5C 472.522,746.977 471.689,747.643 471,748.5C 469.921,746.606 468.587,746.273 467,747.5C 466.667,746.5 466.333,745.5 466,744.5C 464.75,745.573 463.416,745.573 462,744.5C 460.739,744.759 459.739,745.426 459,746.5C 458.667,745.833 458.333,745.167 458,744.5C 456.951,745.517 455.784,745.684 454.5,745C 455.696,744.346 455.696,743.846 454.5,743.5C 453.808,744.025 453.308,744.692 453,745.5C 448.976,743.322 445.309,740.655 442,737.5C 441.355,736.354 440.522,735.354 439.5,734.5C 439.709,733.914 440.043,733.414 440.5,733C 436.999,731.65 435.666,729.316 436.5,726C 435.299,725.097 434.465,723.931 434,722.5C 433.333,721.167 432.667,721.167 432,722.5C 430.513,721.747 430.346,720.914 431.5,720C 430.5,719.667 429.5,719.333 428.5,719C 429.603,717.32 429.27,715.82 427.5,714.5C 426.808,715.025 426.308,715.692 426,716.5C 425.147,714.065 424.147,711.731 423,709.5C 420.442,711.943 419.608,711.443 420.5,708C 418.695,707.028 417.028,705.861 415.5,704.5C 413.883,700.928 411.55,697.928 408.5,695.5C 407.359,694.575 407.359,693.741 408.5,693C 407.833,692.333 407.167,691.667 406.5,691C 406.647,689.026 406.981,687.026 407.5,685C 405.518,679.145 403.852,673.145 402.5,667C 403.14,663.223 404.473,659.723 406.5,656.5C 406.603,652.27 406.27,648.27 405.5,644.5C 406.189,642.556 406.689,640.556 407,638.5C 407.333,638.833 407.667,639.167 408,639.5C 409.115,638 409.948,636.333 410.5,634.5C 414.316,633.571 415.65,631.405 414.5,628C 417.096,626.203 416.763,624.869 413.5,624C 416.064,621.724 415.73,619.724 412.5,618C 413.449,617.383 414.282,617.549 415,618.5C 416.229,616.053 417.729,615.887 419.5,618C 419.043,618.414 418.709,618.914 418.5,619.5C 420.636,620.472 421.803,622.139 422,624.5C 423.364,623.742 424.531,624.242 425.5,626C 425.043,626.414 424.709,626.914 424.5,627.5C 427.456,629.096 430.456,630.596 433.5,632C 432.044,632.423 431.544,633.256 432,634.5C 433.525,634.888 435.192,634.888 437,634.5C 437.915,635.328 438.581,636.328 439,637.5C 439.914,636.346 440.747,636.513 441.5,638C 441.167,638.333 440.833,638.667 440.5,639C 441.5,639.333 442.5,639.667 443.5,640C 443.619,641.281 443.119,642.448 442,643.5C 441.667,643.167 441.333,642.833 441,642.5C 440.311,643.357 439.478,644.023 438.5,644.5C 436.446,642.806 434.112,641.639 431.5,641C 431.833,640.667 432.167,640.333 432.5,640C 431.101,639.405 429.768,639.572 428.5,640.5C 427.201,639.91 426.368,638.91 426,637.5C 425.282,638.451 424.449,638.617 423.5,638C 424.016,635.967 423.35,635.967 421.5,638C 421.833,638.333 422.167,638.667 422.5,639C 421.022,640.193 419.688,640.693 418.5,640.5C 417.874,648.871 421.707,655.204 430,659.5C 431.333,659.5 432.667,659.5 434,659.5C 434.483,660.448 434.649,661.448 434.5,662.5C 434.631,663.376 434.298,664.043 433.5,664.5C 432.107,663.137 430.441,662.304 428.5,662C 428.833,661.667 429.167,661.333 429.5,661C 427.721,661.979 426.055,661.646 424.5,660C 422.158,656.661 419.492,653.661 416.5,651C 416.239,649.073 416.239,647.073 416.5,645C 413.091,638.782 410.425,639.115 408.5,646C 408.609,648.242 408.942,650.409 409.5,652.5C 403.896,662.591 403.729,672.924 409,683.5C 410.167,684.667 411.333,685.833 412.5,687C 411.521,688.779 411.854,690.445 413.5,692C 412.044,692.423 411.544,693.256 412,694.5C 413.667,695.5 415.333,696.5 417,697.5C 417.36,699.608 418.027,701.608 419,703.5C 422.842,706.334 426.675,709.167 430.5,712C 430.167,712.333 429.833,712.667 429.5,713C 432.472,714.141 434.139,716.308 434.5,719.5C 436.028,720.861 437.695,722.028 439.5,723C 439.623,724.789 439.623,726.622 439.5,728.5C 442.086,734.312 447.086,738.978 454.5,742.5C 457.034,741.224 459.534,740.89 462,741.5C 462.605,739.519 463.605,739.185 465,740.5C 465.21,737.731 464.377,735.231 462.5,733C 464.158,732.275 464.658,731.108 464,729.5C 461.399,730.726 460.565,730.06 461.5,727.5C 460.07,724.567 458.07,722.067 455.5,720C 457.901,719.195 457.734,718.362 455,717.5C 454.727,715.899 454.227,714.399 453.5,713C 453.833,712.667 454.167,712.333 454.5,712C 453.5,711.667 452.5,711.333 451.5,711C 452.34,709.334 451.84,709.167 450,710.5C 449.535,709.069 448.701,707.903 447.5,707C 448.257,705.488 449.257,704.154 450.5,703C 449.366,701.984 449.699,701.317 451.5,701C 450.377,699.956 449.044,699.29 447.5,699C 449.657,698.922 451.657,698.755 453.5,698.5C 454.799,699.09 455.632,700.09 456,701.5C 457.491,699.996 459.324,699.163 461.5,699C 460.833,698.667 460.167,698.333 459.5,698C 461.504,694.656 463.837,692.323 466.5,691C 464.213,689.573 463.88,687.739 465.5,685.5C 463.009,684.459 463.009,683.626 465.5,683C 463.027,679.221 461.693,675.388 461.5,671.5C 465.449,671.307 465.449,670.807 461.5,670C 466.087,663.925 470.42,658.258 474.5,653C 474.043,652.586 473.709,652.086 473.5,651.5C 475.763,647.21 477.929,642.877 480,638.5C 481.674,639.065 483.507,639.232 485.5,639C 487.55,646.387 491.883,652.053 498.5,656C 498.167,656.333 497.833,656.667 497.5,657C 500.544,657.359 500.878,658.026 498.5,659C 501.622,660.58 504.622,662.413 507.5,664.5C 510.098,668.603 513.265,672.269 517,675.5C 518,674.167 519,674.167 520,675.5C 522.056,674.417 523.389,672.75 524,670.5C 524.333,670.833 524.667,671.167 525,671.5C 524.562,669.399 524.062,667.565 523.5,666C 524.308,665.692 524.975,665.192 525.5,664.5C 524.253,662.958 524.253,661.458 525.5,660C 524.942,653.609 521.608,649.442 515.5,647.5C 513.362,645.967 512.695,644.134 513.5,642C 511.568,640.648 510.234,638.815 509.5,636.5C 510.833,635.167 510.833,633.833 509.5,632.5C 509.833,631.5 510.5,630.833 511.5,630.5C 514.402,630.391 516.902,631.058 519,632.5C 518.946,635.191 520.113,637.024 522.5,638C 522.5,639.333 522.5,640.667 522.5,642C 524.359,642.684 526.026,643.684 527.5,645C 526.346,645.914 526.513,646.747 528,647.5C 528.667,646.167 529.333,646.167 530,647.5C 530.728,650.702 532.228,653.868 534.5,657C 534.167,657.333 533.833,657.667 533.5,658C 536.608,661.974 539.608,665.307 542.5,668C 546.21,670.347 549.876,672.347 553.5,674C 555.18,674.034 556.68,674.201 558,674.5C 558.626,672.009 559.459,672.009 560.5,674.5C 562.003,673.41 562.336,672.243 561.5,671C 565.5,670.333 565.5,669.667 561.5,669C 562.667,668.5 563.5,667.667 564,666.5C 564.333,666.833 564.667,667.167 565,667.5C 565.5,666.5 566,665.5 566.5,664.5C 562.718,665.39 559.218,665.39 556,664.5C 552.902,662.199 550.402,659.366 548.5,656C 546.52,653.836 544.187,652.336 541.5,651.5C 541.649,650.448 541.483,649.448 541,648.5C 540.667,648.833 540.333,649.167 540,649.5C 538.509,647.996 536.676,647.163 534.5,647C 537.167,646.333 537.167,645.667 534.5,645C 535.299,642.772 534.299,641.439 531.5,641C 532.451,640.282 532.617,639.449 532,638.5C 529.852,637.023 528.518,635.023 528,632.5C 527.667,632.833 527.333,633.167 527,633.5C 526.108,630.048 524.442,627.048 522,624.5C 521.333,623.167 520.667,623.167 520,624.5C 519.358,620.889 518.524,617.056 517.5,613C 517.833,612.667 518.167,612.333 518.5,612C 515.325,608.492 511.825,605.325 508,602.5C 506.221,603.479 504.555,603.146 503,601.5C 502.667,602.167 502.333,602.833 502,603.5C 500.497,603.165 499.164,603.165 498,603.5C 497.096,606.398 495.762,609.064 494,611.5C 492.777,608.553 490.777,607.553 488,608.5C 487.667,607.833 487.333,607.167 487,606.5C 485.956,607.623 485.29,608.956 485,610.5C 484.346,609.304 483.846,609.304 483.5,610.5C 484.872,612.62 484.205,613.62 481.5,613.5C 479.808,617.396 477.808,621.229 475.5,625C 476.646,627.557 475.646,628.89 472.5,629C 473.167,629.333 473.833,629.667 474.5,630C 469.245,635.333 464.578,641.166 460.5,647.5C 460.709,648.086 461.043,648.586 461.5,649C 459.667,649.5 458.5,650.667 458,652.5C 457.08,655.101 456.413,657.768 456,660.5C 455.667,660.167 455.333,659.833 455,659.5C 452.2,662.114 449.2,664.447 446,666.5C 445.667,665.833 445.333,665.167 445,664.5C 443.111,665.097 441.278,665.431 439.5,665.5C 438.145,664.812 437.145,663.812 436.5,662.5C 436.811,661.522 437.478,660.855 438.5,660.5C 440.435,660.127 442.268,660.793 444,662.5C 445.032,660.855 446.199,660.522 447.5,661.5C 448.899,659.897 450.565,658.563 452.5,657.5C 456.926,650.054 461.26,642.554 465.5,635C 465.167,634.667 464.833,634.333 464.5,634C 465.586,631.661 466.42,629.161 467,626.5C 467.667,625.167 468.333,625.167 469,626.5C 469.465,625.069 470.299,623.903 471.5,623C 470.833,622.667 470.167,622.333 469.5,622C 471.123,619.92 472.623,617.754 474,615.5C 475.067,614.809 476.234,614.309 477.5,614C 476.332,612.594 476.665,611.428 478.5,610.5C 477.975,609.808 477.308,609.308 476.5,609C 477.96,606.491 480.126,603.991 483,601.5C 485.8,602.128 488.467,603.128 491,604.5C 492.555,602.854 494.221,602.521 496,603.5C 496.953,601.545 498.287,599.878 500,598.5C 500.667,599.167 501.333,599.833 502,600.5C 503.743,598.773 505.576,598.106 507.5,598.5C 508.976,600.571 510.976,601.571 513.5,601.5C 512.51,598.484 511.843,595.65 511.5,593C 513.592,592.047 513.925,590.714 512.5,589C 513.667,588.5 514.5,587.667 515,586.5C 516.974,586.626 519.141,586.792 521.5,587C 524.406,588.021 526.406,589.521 527.5,591.5C 531.071,598.038 534.738,604.538 538.5,611C 537.572,612.976 536.405,614.809 535,616.5C 532.295,615.663 529.629,614.663 527,613.5C 525.182,614.243 523.348,615.743 521.5,618C 522.833,620.333 524.167,622.667 525.5,625C 525.167,625.333 524.833,625.667 524.5,626C 526.259,627.008 527.426,628.508 528,630.5C 528.333,630.167 528.667,629.833 529,629.5C 530.933,631.558 532.767,633.725 534.5,636C 535.833,636.667 537.167,637.333 538.5,638C 538.167,638.333 537.833,638.667 537.5,639C 541.568,643.321 544.902,647.654 547.5,652C 549.8,653.725 551.966,655.558 554,657.5C 554.414,657.043 554.914,656.709 555.5,656.5C 556.333,657.5 557.167,658.5 558,659.5C 559.067,658.809 560.234,658.309 561.5,658C 560.483,656.951 560.316,655.784 561,654.5C 561.667,655.833 562.333,657.167 563,658.5C 564.294,657.146 564.46,655.812 563.5,654.5C 564.167,654.167 564.833,653.833 565.5,653.5C 564.975,652.808 564.308,652.308 563.5,652C 563.833,651 564.167,650 564.5,649C 562.971,647.209 561.304,645.542 559.5,644C 561.891,642.691 561.891,641.691 559.5,641C 560.336,639.757 560.003,638.59 558.5,637.5C 555.906,636.408 553.739,634.741 552,632.5C 551.221,633.728 550.221,634.728 549,635.5C 547.005,633.671 545.172,631.671 543.5,629.5C 541.323,630.504 540.989,629.838 542.5,627.5C 540.12,624.107 538.786,620.607 538.5,617C 539.025,616.308 539.692,615.808 540.5,615.5C 541.623,616.544 542.956,617.21 544.5,617.5C 546.869,616.812 549.036,616.478 551,616.5C 551.309,617.766 551.809,618.933 552.5,620C 554.402,620.199 555.902,621.033 557,622.5C 557.333,622.167 557.667,621.833 558,621.5C 562.645,624.977 567.145,628.644 571.5,632.5C 574.872,636.097 577.872,639.93 580.5,644C 584.507,645.531 588.507,647.864 592.5,651C 597.263,657.484 602.93,663.151 609.5,668C 609.167,668.333 608.833,668.667 608.5,669C 615.483,674.227 622.149,680.561 628.5,688C 628.167,688.333 627.833,688.667 627.5,689C 630.267,689.678 632.434,691.178 634,693.5C 635.016,692.366 635.683,692.699 636,694.5C 637.145,694.381 638.312,694.048 639.5,693.5 Z"/></g>
<g><path style="opacity:1" fill="#dbdde0" d="M 434.5,662.5 C 435.167,662.5 435.833,662.5 436.5,662.5C 437.145,663.812 438.145,664.812 439.5,665.5C 441.278,665.431 443.111,665.097 445,664.5C 445.333,665.167 445.667,665.833 446,666.5C 449.2,664.447 452.2,662.114 455,659.5C 455.333,659.833 455.667,660.167 456,660.5C 456.413,657.768 457.08,655.101 458,652.5C 458.5,650.667 459.667,649.5 461.5,649C 461.043,648.586 460.709,648.086 460.5,647.5C 464.578,641.166 469.245,635.333 474.5,630C 473.833,629.667 473.167,629.333 472.5,629C 475.646,628.89 476.646,627.557 475.5,625C 477.808,621.229 479.808,617.396 481.5,613.5C 484.205,613.62 484.872,612.62 483.5,610.5C 483.846,609.304 484.346,609.304 485,610.5C 485.29,608.956 485.956,607.623 487,606.5C 487.333,607.167 487.667,607.833 488,608.5C 490.777,607.553 492.777,608.553 494,611.5C 495.762,609.064 497.096,606.398 498,603.5C 499.164,603.165 500.497,603.165 502,603.5C 502.333,602.833 502.667,602.167 503,601.5C 504.555,603.146 506.221,603.479 508,602.5C 511.825,605.325 515.325,608.492 518.5,612C 518.167,612.333 517.833,612.667 517.5,613C 518.524,617.056 519.358,620.889 520,624.5C 520.667,623.167 521.333,623.167 522,624.5C 524.442,627.048 526.108,630.048 527,633.5C 527.333,633.167 527.667,632.833 528,632.5C 528.518,635.023 529.852,637.023 532,638.5C 532.617,639.449 532.451,640.282 531.5,641C 534.299,641.439 535.299,642.772 534.5,645C 537.167,645.667 537.167,646.333 534.5,647C 536.676,647.163 538.509,647.996 540,649.5C 540.333,649.167 540.667,648.833 541,648.5C 541.483,649.448 541.649,650.448 541.5,651.5C 544.187,652.336 546.52,653.836 548.5,656C 550.402,659.366 552.902,662.199 556,664.5C 559.218,665.39 562.718,665.39 566.5,664.5C 566,665.5 565.5,666.5 565,667.5C 564.667,667.167 564.333,666.833 564,666.5C 563.5,667.667 562.667,668.5 561.5,669C 565.5,669.667 565.5,670.333 561.5,671C 562.336,672.243 562.003,673.41 560.5,674.5C 559.459,672.009 558.626,672.009 558,674.5C 556.68,674.201 555.18,674.034 553.5,674C 549.876,672.347 546.21,670.347 542.5,668C 539.608,665.307 536.608,661.974 533.5,658C 533.833,657.667 534.167,657.333 534.5,657C 532.228,653.868 530.728,650.702 530,647.5C 529.333,646.167 528.667,646.167 528,647.5C 526.513,646.747 526.346,645.914 527.5,645C 526.026,643.684 524.359,642.684 522.5,642C 522.5,640.667 522.5,639.333 522.5,638C 520.113,637.024 518.946,635.191 519,632.5C 516.902,631.058 514.402,630.391 511.5,630.5C 510.5,630.833 509.833,631.5 509.5,632.5C 510.833,633.833 510.833,635.167 509.5,636.5C 510.234,638.815 511.568,640.648 513.5,642C 512.695,644.134 513.362,645.967 515.5,647.5C 521.608,649.442 524.942,653.609 525.5,660C 524.253,661.458 524.253,662.958 525.5,664.5C 524.975,665.192 524.308,665.692 523.5,666C 524.062,667.565 524.562,669.399 525,671.5C 524.667,671.167 524.333,670.833 524,670.5C 523.389,672.75 522.056,674.417 520,675.5C 519,674.167 518,674.167 517,675.5C 513.265,672.269 510.098,668.603 507.5,664.5C 504.622,662.413 501.622,660.58 498.5,659C 500.878,658.026 500.544,657.359 497.5,657C 497.833,656.667 498.167,656.333 498.5,656C 491.883,652.053 487.55,646.387 485.5,639C 483.507,639.232 481.674,639.065 480,638.5C 477.929,642.877 475.763,647.21 473.5,651.5C 473.709,652.086 474.043,652.586 474.5,653C 470.42,658.258 466.087,663.925 461.5,670C 465.449,670.807 465.449,671.307 461.5,671.5C 461.693,675.388 463.027,679.221 465.5,683C 463.009,683.626 463.009,684.459 465.5,685.5C 463.88,687.739 464.213,689.573 466.5,691C 463.837,692.323 461.504,694.656 459.5,698C 460.167,698.333 460.833,698.667 461.5,699C 459.324,699.163 457.491,699.996 456,701.5C 455.632,700.09 454.799,699.09 453.5,698.5C 451.657,698.755 449.657,698.922 447.5,699C 449.044,699.29 450.377,699.956 451.5,701C 449.699,701.317 449.366,701.984 450.5,703C 449.257,704.154 448.257,705.488 447.5,707C 448.701,707.903 449.535,709.069 450,710.5C 451.84,709.167 452.34,709.334 451.5,711C 452.5,711.333 453.5,711.667 454.5,712C 454.167,712.333 453.833,712.667 453.5,713C 454.227,714.399 454.727,715.899 455,717.5C 457.734,718.362 457.901,719.195 455.5,720C 458.07,722.067 460.07,724.567 461.5,727.5C 460.565,730.06 461.399,730.726 464,729.5C 464.658,731.108 464.158,732.275 462.5,733C 464.377,735.231 465.21,737.731 465,740.5C 463.605,739.185 462.605,739.519 462,741.5C 459.534,740.89 457.034,741.224 454.5,742.5C 447.086,738.978 442.086,734.312 439.5,728.5C 439.623,726.622 439.623,724.789 439.5,723C 437.695,722.028 436.028,720.861 434.5,719.5C 434.139,716.308 432.472,714.141 429.5,713C 429.833,712.667 430.167,712.333 430.5,712C 426.675,709.167 422.842,706.334 419,703.5C 418.027,701.608 417.36,699.608 417,697.5C 415.333,696.5 413.667,695.5 412,694.5C 411.544,693.256 412.044,692.423 413.5,692C 411.854,690.445 411.521,688.779 412.5,687C 411.333,685.833 410.167,684.667 409,683.5C 403.729,672.924 403.896,662.591 409.5,652.5C 408.942,650.409 408.609,648.242 408.5,646C 410.425,639.115 413.091,638.782 416.5,645C 416.239,647.073 416.239,649.073 416.5,651C 419.492,653.661 422.158,656.661 424.5,660C 426.055,661.646 427.721,661.979 429.5,661C 429.167,661.333 428.833,661.667 428.5,662C 430.441,662.304 432.107,663.137 433.5,664.5C 434.298,664.043 434.631,663.376 434.5,662.5 Z"/></g>
<g><path style="opacity:1" fill="#737476" d="M 516.5,573.5 C 516.833,573.5 517.167,573.5 517.5,573.5C 522.76,577.255 527.594,581.589 532,586.5C 537.339,594.319 543.505,601.486 550.5,608C 565.078,618.576 578.412,630.576 590.5,644C 602.29,652.957 613.29,662.791 623.5,673.5C 622.833,673.5 622.5,673.833 622.5,674.5C 605.016,659.183 588.016,643.35 571.5,627C 558.426,617.928 546.593,607.428 536,595.5C 533.657,590.999 530.49,587.333 526.5,584.5C 523.167,580.833 519.833,577.167 516.5,573.5 Z"/></g>
<g><path style="opacity:1" fill="#838487" d="M 400.5,562.5 C 400.833,562.5 401.167,562.5 401.5,562.5C 401.5,583.833 401.5,605.167 401.5,626.5C 400.833,643.833 400.167,661.167 399.5,678.5C 399.21,639.818 399.543,601.151 400.5,562.5 Z"/></g>
<g><path style="opacity:1" fill="#717275" d="M 814.5,603.5 C 814.833,603.5 815.167,603.5 815.5,603.5C 813.001,631.435 812.001,659.435 812.5,687.5C 812.167,687.5 811.833,687.5 811.5,687.5C 809.617,659.247 810.617,631.247 814.5,603.5 Z"/></g>
<g><path style="opacity:1" fill="#dadcdf" d="M 784.5,434.5 C 780.627,432.57 776.294,431.903 771.5,432.5C 774.149,430.891 777.149,430.057 780.5,430C 769.649,430.388 760.649,427.388 753.5,421C 755.49,419.249 757.823,418.249 760.5,418C 761.833,416 763.167,414 764.5,412C 768.089,411.793 771.589,411.293 775,410.5C 776.396,412.527 778.062,412.86 780,411.5C 780.667,412.167 781.333,412.833 782,413.5C 785.576,411.962 789.076,410.295 792.5,408.5C 795.279,409.389 797.945,410.556 800.5,412C 799.355,414.428 798.022,416.762 796.5,419C 797.693,421.597 799.693,422.597 802.5,422C 803.833,421.333 803.833,420.667 802.5,420C 803.665,418.916 804.998,418.083 806.5,417.5C 805.981,419.436 806.647,421.269 808.5,423C 805.972,424.316 805.972,425.483 808.5,426.5C 807.846,428.115 807.346,429.782 807,431.5C 806.08,431.93 805.247,432.264 804.5,432.5C 805.5,434.5 806.5,436.5 807.5,438.5C 806.672,446.268 806.672,453.101 807.5,459C 806.623,462.585 805.956,465.918 805.5,469C 808.275,471.474 809.608,474.64 809.5,478.5C 808.816,481.715 807.816,484.882 806.5,488C 807.504,490.35 808.504,492.684 809.5,495C 809.134,503.983 808.801,512.983 808.5,522C 810.958,530.192 809.958,538.358 805.5,546.5C 807.645,550.491 808.979,554.491 809.5,558.5C 808.926,560.059 808.26,561.559 807.5,563C 808.634,564.016 808.301,564.683 806.5,565C 806.685,576.223 807.352,586.89 808.5,597C 806.031,600.611 804.365,604.611 803.5,609C 804.458,610.147 804.125,611.147 802.5,612C 803.332,617.839 803.332,623.506 802.5,629C 803.167,629.667 803.833,630.333 804.5,631C 803.612,637.789 802.278,644.789 800.5,652C 801.214,653.343 800.88,654.676 799.5,656C 799.483,659.633 799.65,663.467 800,667.5C 800.976,671.583 802.143,675.916 803.5,680.5C 802.199,684.06 802.533,687.56 804.5,691C 801.529,693.822 799.196,697.655 797.5,702.5C 799.32,706.635 800.987,710.802 802.5,715C 801.833,715.667 801.167,716.333 800.5,717C 801.939,717.991 802.939,719.324 803.5,721C 800.433,724.406 797.099,727.406 793.5,730C 795.973,731.402 795.973,732.902 793.5,734.5C 793.977,735.478 794.643,736.311 795.5,737C 793.17,739.196 791.837,741.53 791.5,744C 789.77,745.852 788.604,745.686 788,743.5C 787,746.167 786,746.167 785,743.5C 784.667,744.167 784.333,744.833 784,745.5C 778.703,740.636 778.37,735.302 783,729.5C 783.667,728.167 784.333,728.167 785,729.5C 785.869,726.237 787.203,725.904 789,728.5C 789.617,727.551 789.451,726.718 788.5,726C 790.5,724.667 792.167,723 793.5,721C 792.672,720.085 791.672,719.419 790.5,719C 790.833,718.667 791.167,718.333 791.5,718C 791.045,715.688 790.045,713.688 788.5,712C 790.8,709.995 790.8,707.828 788.5,705.5C 789.025,704.808 789.692,704.308 790.5,704C 790.412,702.054 790.079,700.054 789.5,698C 789.903,696.527 790.57,695.194 791.5,694C 789.519,693.395 789.185,692.395 790.5,691C 789.335,687.597 787.668,684.097 785.5,680.5C 786.321,678.217 786.988,675.884 787.5,673.5C 786.121,666.037 784.121,658.87 781.5,652C 780.904,645.106 780.904,638.106 781.5,631C 781.101,627.436 780.434,623.936 779.5,620.5C 779.851,604.947 781.184,589.28 783.5,573.5C 782.992,569.779 782.658,566.279 782.5,563C 783.167,562 783.833,561 784.5,560C 783.322,549.605 783.322,539.938 784.5,531C 786.679,530.558 787.345,529.558 786.5,528C 787.509,525.828 789.176,524.662 791.5,524.5C 791.66,522.801 791.494,521.134 791,519.5C 790.086,520.654 789.253,520.487 788.5,519C 789.574,518.261 790.241,517.261 790.5,516C 790.18,513.649 789.847,511.316 789.5,509C 790.308,508.692 790.975,508.192 791.5,507.5C 791.306,505.93 791.306,504.43 791.5,503C 792.328,502.085 793.328,501.419 794.5,501C 793.075,499.286 793.408,497.953 795.5,497C 794.833,496.667 794.167,496.333 793.5,496C 794.833,495.333 794.833,494.667 793.5,494C 794.711,492.156 796.044,491.322 797.5,491.5C 796.787,489.224 796.287,486.891 796,484.5C 793.822,485.893 792.822,487.56 793,489.5C 792,488.167 791,486.833 790,485.5C 789.493,484.004 789.993,482.837 791.5,482C 789.724,480.329 789.39,478.496 790.5,476.5C 787.726,475.255 785.726,472.755 784.5,469C 785.898,467.351 785.564,466.018 783.5,465C 784.809,463.249 784.475,461.749 782.5,460.5C 783.711,459.28 783.711,458.113 782.5,457C 783.858,455.168 784.192,453.335 783.5,451.5C 785.335,450.572 785.668,449.406 784.5,448C 787.234,445.354 787.567,442.687 785.5,440C 786.167,439.667 786.833,439.333 787.5,439C 786.167,438 786.167,437 787.5,436C 786.95,433.842 785.95,433.342 784.5,434.5 Z"/></g>
<g><path style="opacity:1" fill="#9e9ea0" d="M 778.5,646.5 C 779.477,649.287 779.81,652.287 779.5,655.5C 778.833,675.5 778.167,695.5 777.5,715.5C 777.5,694.5 777.5,673.5 777.5,652.5C 778.461,650.735 778.795,648.735 778.5,646.5 Z"/></g>
<g><path style="opacity:1" fill="#67686b" d="M 779.5,655.5 C 779.235,673.515 779.568,691.515 780.5,709.5C 780.508,713.472 779.508,717.139 777.5,720.5C 772.907,716.083 768.074,711.75 763,707.5C 761.114,703.56 758.614,700.06 755.5,697C 746.013,689.424 736.346,682.091 726.5,675C 711.228,671.595 696.228,672.429 681.5,677.5C 673.755,680.728 667.255,685.728 662,692.5C 660.036,696.308 658.203,699.974 656.5,703.5C 652.801,700.65 648.801,698.317 644.5,696.5C 642.999,695.248 641.332,694.248 639.5,693.5C 633.52,687.516 627.853,681.183 622.5,674.5C 622.5,673.833 622.833,673.5 623.5,673.5C 632.313,684.642 642.98,693.642 655.5,700.5C 656.662,698.176 657.829,695.842 659,693.5C 662.703,690.133 666.036,686.466 669,682.5C 672.577,679.627 676.411,677.127 680.5,675C 693.909,670.981 707.575,669.647 721.5,671C 724.377,671.956 727.044,673.289 729.5,675C 739.116,681.615 748.45,688.615 757.5,696C 760.057,698.892 762.224,702.059 764,705.5C 768.5,708.667 772.333,712.5 775.5,717C 776.816,717.528 777.483,717.028 777.5,715.5C 778.167,695.5 778.833,675.5 779.5,655.5 Z"/></g>
<g><path style="opacity:1" fill="#cfd1d6" d="M 579.5,681.5 C 582.237,683.399 584.737,683.733 587,682.5C 587.317,684.301 587.984,684.634 589,683.5C 591.559,684.98 594.226,686.313 597,687.5C 599.599,687.633 602.266,687.633 605,687.5C 608.566,690.699 612.4,693.533 616.5,696C 615.793,698.52 614.96,701.02 614,703.5C 613.667,703.167 613.333,702.833 613,702.5C 611.829,703.893 610.329,704.727 608.5,705C 607.54,706.419 606.707,707.919 606,709.5C 604.434,708.939 603.101,709.606 602,711.5C 598.311,710.882 594.311,710.882 590,711.5C 587.303,710.141 584.969,707.808 583,704.5C 583.063,701.233 581.563,699.066 578.5,698C 578.833,697.667 579.167,697.333 579.5,697C 578.284,695.26 576.618,694.26 574.5,694C 575.167,693.667 575.833,693.333 576.5,693C 575.643,692.311 574.977,691.478 574.5,690.5C 575.641,689.575 575.641,688.741 574.5,688C 576.592,687.047 576.925,685.714 575.5,684C 577.437,683.878 578.77,683.045 579.5,681.5 Z"/></g>
<g><path style="opacity:1" fill="#d2d4d8" d="M 779.5,655.5 C 780.134,661.521 781.8,667.354 784.5,673C 783.798,676.466 783.131,679.966 782.5,683.5C 782.789,687.223 782.789,691.056 782.5,695C 784.756,696.834 784.756,698.501 782.5,700C 783.218,702.461 783.885,704.961 784.5,707.5C 784.023,708.478 783.357,709.311 782.5,710C 785.167,711 785.167,712 782.5,713C 783.308,713.308 783.975,713.808 784.5,714.5C 783.289,715.72 783.289,716.887 784.5,718C 782.431,718.324 782.098,719.158 783.5,720.5C 781.914,722.173 781.247,724.173 781.5,726.5C 779.058,726.354 778.391,727.187 779.5,729C 777.992,730.507 776.659,732.173 775.5,734C 775.5,736 775.5,738 775.5,740C 777.991,740.626 777.991,741.459 775.5,742.5C 776.709,744.415 778.042,746.248 779.5,748C 779.056,749.762 778.556,749.595 778,747.5C 776.686,748.313 775.519,749.313 774.5,750.5C 770.225,750.08 767.391,752.08 766,756.5C 765.692,755.692 765.192,755.025 764.5,754.5C 763.155,755.347 762.155,756.513 761.5,758C 756.11,759.463 750.777,761.13 745.5,763C 744.874,763.75 744.374,764.584 744,765.5C 739.601,763.831 735.268,762.164 731,760.5C 730.667,761.167 730.333,761.833 730,762.5C 729,761.167 728,761.167 727,762.5C 725.513,761.747 725.346,760.914 726.5,760C 725,759.5 723.5,759 722,758.5C 720.211,759.409 718.377,759.576 716.5,759C 718.301,758.683 718.634,758.016 717.5,757C 714.774,756.818 712.107,756.318 709.5,755.5C 714.312,747.316 719.312,739.816 724.5,733C 722.567,729.842 722.567,726.509 724.5,723C 724,722.5 723.5,722 723,721.5C 720.03,722.574 718.197,721.407 717.5,718C 719,714.989 719.834,715.489 720,719.5C 721.049,720.517 722.216,720.684 723.5,720C 722.614,718.783 721.614,717.449 720.5,716C 721.167,715 721.833,714 722.5,713C 717.417,713.617 717.25,712.451 722,709.5C 724.099,710.287 726.266,710.62 728.5,710.5C 728.671,708.007 727.671,706.174 725.5,705C 726.328,704.085 727.328,703.419 728.5,703C 725.214,701.965 724.88,700.465 727.5,698.5C 726.408,697.169 725.074,696.336 723.5,696C 723.833,695.667 724.167,695.333 724.5,695C 723.09,694.632 722.09,693.799 721.5,692.5C 721.835,690.997 721.835,689.664 721.5,688.5C 720.833,689.167 720.167,689.833 719.5,690.5C 716.024,685.782 712.524,685.448 709,689.5C 708.167,687 707,686.833 705.5,689C 706.308,689.308 706.975,689.808 707.5,690.5C 706.335,691.584 705.002,692.417 703.5,693C 702.446,694.388 702.28,695.888 703,697.5C 703.333,697.167 703.667,696.833 704,696.5C 704.667,697.5 704.667,698.5 704,699.5C 703,699.167 702,698.833 701,698.5C 700.385,700.116 699.385,701.449 698,702.5C 694.307,701.326 691.141,699.326 688.5,696.5C 689.035,694.729 689.869,694.396 691,695.5C 691.483,694.552 691.649,693.552 691.5,692.5C 689.234,692.141 687.401,692.808 686,694.5C 685.667,693.5 685.333,692.5 685,691.5C 682.825,692.255 680.659,693.088 678.5,694C 681,694.833 681.167,696 679,697.5C 678.085,696.672 677.419,695.672 677,694.5C 675.667,696.5 674.333,698.5 673,700.5C 672,700.167 671,699.833 670,699.5C 669.383,700.449 669.549,701.282 670.5,702C 666.255,702.865 662.255,704.365 658.5,706.5C 658.912,705.218 658.246,704.218 656.5,703.5C 658.203,699.974 660.036,696.308 662,692.5C 667.255,685.728 673.755,680.728 681.5,677.5C 682.873,677.343 684.207,677.51 685.5,678C 679.12,680.772 673.286,684.272 668,688.5C 666.411,691.921 664.245,694.921 661.5,697.5C 660.369,699.074 660.202,700.741 661,702.5C 665.476,697.089 670.31,691.922 675.5,687C 681.048,686.138 686.214,684.305 691,681.5C 691.772,681.645 692.439,681.978 693,682.5C 693.442,680.321 694.442,679.655 696,680.5C 706.185,675.455 716.019,676.455 725.5,683.5C 728.323,686.488 731.323,689.322 734.5,692C 733.549,692.718 733.383,693.551 734,694.5C 734.689,693.643 735.522,692.977 736.5,692.5C 738.188,694.029 739.521,695.863 740.5,698C 742.392,698.973 744.392,699.64 746.5,700C 745.376,700.249 744.376,700.749 743.5,701.5C 743.667,701.833 743.833,702.167 744,702.5C 745.667,702.5 747.333,702.5 749,702.5C 750.487,703.253 750.654,704.086 749.5,705C 751.286,705.785 752.786,706.951 754,708.5C 755.666,707.66 755.833,708.16 754.5,710C 756.667,711.5 758.833,713 761,714.5C 764,718.5 767,722.5 770,726.5C 770.667,725.167 771.333,725.167 772,726.5C 772.317,724.699 772.984,724.366 774,725.5C 774.317,723.699 774.984,723.366 776,724.5C 776.617,723.551 776.451,722.718 775.5,722C 776.416,721.722 777.082,721.222 777.5,720.5C 779.508,717.139 780.508,713.472 780.5,709.5C 779.568,691.515 779.235,673.515 779.5,655.5 Z"/></g>
<g><path style="opacity:1" fill="#cfd1d5" d="M 812.5,540.5 C 813.521,561.329 814.188,582.329 814.5,603.5C 810.617,631.247 809.617,659.247 811.5,687.5C 810.167,709.167 810.167,730.833 811.5,752.5C 812.681,774.189 812.681,795.855 811.5,817.5C 808.721,817.279 806.054,817.612 803.5,818.5C 796.691,819.732 790.024,819.732 783.5,818.5C 789.255,818.189 794.255,816.022 798.5,812C 801.293,812.673 803.96,812.007 806.5,810C 807.202,806.534 807.869,803.034 808.5,799.5C 806.115,786.311 804.949,772.978 805,759.5C 804.215,757.714 803.049,756.214 801.5,755C 802.641,754.259 802.641,753.425 801.5,752.5C 800.167,751.833 798.833,751.167 797.5,750.5C 797.833,749.833 798.167,749.167 798.5,748.5C 798.154,747.304 797.654,747.304 797,748.5C 796.833,747.5 796.667,746.5 796.5,745.5C 797.759,741.951 798.593,738.284 799,734.5C 800.482,732.02 802.315,729.853 804.5,728C 804.355,727.228 804.022,726.561 803.5,726C 805.517,721.813 806.85,717.313 807.5,712.5C 806.952,703.047 806.952,693.881 807.5,685C 806.833,682.333 806.167,679.667 805.5,677C 806.479,675.221 806.146,673.555 804.5,672C 805.711,670.887 805.711,669.72 804.5,668.5C 807.131,666.995 806.797,666.329 803.5,666.5C 803.714,664.856 803.38,663.356 802.5,662C 803.636,660.47 804.636,659.137 805.5,658C 803.417,656.68 803.751,655.346 806.5,654C 805.584,651.43 804.918,648.763 804.5,646C 803.949,641.846 804.616,637.846 806.5,634C 806.766,626.517 806.433,619.517 805.5,613C 807.419,606.073 809.086,599.073 810.5,592C 810.456,590.236 810.122,588.569 809.5,587C 810.167,582.333 810.833,577.667 811.5,573C 810.892,571.769 810.559,570.436 810.5,569C 812.37,559.695 813.037,550.195 812.5,540.5 Z"/></g>
<g><path style="opacity:1" fill="#d2d4d8" d="M 494.5,691.5 C 498.056,691.863 501.556,693.196 505,695.5C 506.333,694.833 507.667,694.167 509,693.5C 511.42,694.488 513.753,694.155 516,692.5C 516.368,693.91 517.201,694.91 518.5,695.5C 519.903,695.64 521.403,695.64 523,695.5C 523.975,699.411 525.808,700.077 528.5,697.5C 531.219,700.06 534.052,702.393 537,704.5C 537.11,707.646 538.443,708.646 541,707.5C 541.595,708.899 541.428,710.232 540.5,711.5C 541.328,712.415 542.328,713.081 543.5,713.5C 544.5,712.167 545.5,712.167 546.5,713.5C 547.551,712.115 548.884,711.115 550.5,710.5C 550.911,711.262 551.077,712.262 551,713.5C 552.68,712.397 554.18,712.73 555.5,714.5C 557.382,713.907 559.215,713.24 561,712.5C 562.805,714.32 564.972,715.486 567.5,716C 567.043,716.414 566.709,716.914 566.5,717.5C 567.529,717.296 568.529,717.796 569.5,719C 568.804,720.488 569.138,721.988 570.5,723.5C 570.833,722.833 571.167,722.167 571.5,721.5C 572.645,723.635 572.645,725.801 571.5,728C 571.892,729.011 572.559,729.511 573.5,729.5C 572.429,731.325 573.096,732.492 575.5,733C 578.343,732.369 580.843,732.869 583,734.5C 588.123,734.735 593.123,734.402 598,733.5C 598.875,735.513 600.209,735.513 602,733.5C 603.03,735.776 604.53,736.443 606.5,735.5C 607.941,736.304 609.441,736.971 611,737.5C 613.843,736.379 616.677,735.379 619.5,734.5C 620.167,734.667 620.833,734.833 621.5,735C 620.5,735.333 619.5,735.667 618.5,736C 620.433,736.783 621.933,736.283 623,734.5C 623.991,735.939 625.324,736.939 627,737.5C 629.081,736.785 631.247,735.785 633.5,734.5C 632.708,732.805 633.042,731.138 634.5,729.5C 635.799,730.09 636.632,731.09 637,732.5C 637.333,732.167 637.667,731.833 638,731.5C 638.591,732.483 638.257,733.15 637,733.5C 635.899,732.709 635.066,732.709 634.5,733.5C 635.436,734.974 636.77,735.974 638.5,736.5C 640.404,738.531 640.571,740.531 639,742.5C 636.793,740.177 633.96,739.344 630.5,740C 631.167,740.333 631.833,740.667 632.5,741C 630.559,741.304 628.893,742.137 627.5,743.5C 626.914,743.291 626.414,742.957 626,742.5C 623.597,745.243 620.931,747.576 618,749.5C 616.278,749.038 614.445,748.872 612.5,749C 614.595,748.444 614.762,747.944 613,747.5C 610.204,746.884 607.537,747.55 605,749.5C 603.758,748.128 602.258,747.128 600.5,746.5C 595.799,747.932 591.633,750.266 588,753.5C 587.667,753.167 587.333,752.833 587,752.5C 583.475,755.703 579.808,756.703 576,755.5C 573.375,758.12 570.875,757.954 568.5,755C 571.266,754.309 571.933,752.809 570.5,750.5C 568.833,749.833 567.167,749.167 565.5,748.5C 564.438,747.23 563.438,746.063 562.5,745C 560.257,745.319 558.09,745.152 556,744.5C 554.601,745.227 553.101,745.727 551.5,746C 551.833,746.333 552.167,746.667 552.5,747C 551.584,747.374 550.75,747.874 550,748.5C 548.765,748.695 547.265,748.695 545.5,748.5C 544.5,749 543.5,749.5 542.5,750C 543.34,751.666 542.84,751.833 541,750.5C 539.399,752.972 537.399,753.972 535,753.5C 534.333,754.833 533.667,756.167 533,757.5C 531.667,756.833 530.333,756.167 529,755.5C 528.195,757.901 527.362,757.734 526.5,755C 527.815,753.605 527.481,752.605 525.5,752C 526.895,749.215 528.228,746.382 529.5,743.5C 529.291,742.914 528.957,742.414 528.5,742C 531.427,738.357 530.927,734.857 527,731.5C 526.333,732.833 525.667,732.833 525,731.5C 524.383,730.551 524.549,729.718 525.5,729C 522.424,728.089 520.091,726.256 518.5,723.5C 514.806,721.653 511.139,719.82 507.5,718C 506.216,717.316 505.049,717.483 504,718.5C 503.667,717.833 503.333,717.167 503,716.5C 502.5,717.667 501.667,718.5 500.5,719C 501.451,719.718 501.617,720.551 501,721.5C 499.667,721.5 498.333,721.5 497,721.5C 495.691,719.109 494.691,719.109 494,721.5C 493.333,720.167 492.667,720.167 492,721.5C 491.289,719.506 489.622,717.839 487,716.5C 485.475,716.112 483.808,716.112 482,716.5C 480.445,714.854 478.779,714.521 477,715.5C 477.195,713.874 477.195,712.207 477,710.5C 476.282,711.451 475.449,711.617 474.5,711C 474.5,709.333 474.5,707.667 474.5,706C 475.516,704.323 476.516,702.657 477.5,701C 475.936,699.395 475.436,697.562 476,695.5C 477.333,698.167 478.667,698.167 480,695.5C 480.333,695.833 480.667,696.167 481,696.5C 481.359,693.456 482.026,693.122 483,695.5C 485.261,693.871 487.595,693.538 490,694.5C 491.593,693.425 493.093,692.425 494.5,691.5 Z"/></g>
<g><path style="opacity:1" fill="#cdcfd4" d="M 777.5,720.5 C 777.082,721.222 776.416,721.722 775.5,722C 776.451,722.718 776.617,723.551 776,724.5C 774.984,723.366 774.317,723.699 774,725.5C 772.984,724.366 772.317,724.699 772,726.5C 771.333,725.167 770.667,725.167 770,726.5C 767,722.5 764,718.5 761,714.5C 758.833,713 756.667,711.5 754.5,710C 755.833,708.16 755.666,707.66 754,708.5C 752.786,706.951 751.286,705.785 749.5,705C 750.654,704.086 750.487,703.253 749,702.5C 747.333,702.5 745.667,702.5 744,702.5C 743.833,702.167 743.667,701.833 743.5,701.5C 744.376,700.749 745.376,700.249 746.5,700C 744.392,699.64 742.392,698.973 740.5,698C 739.521,695.863 738.188,694.029 736.5,692.5C 735.522,692.977 734.689,693.643 734,694.5C 733.383,693.551 733.549,692.718 734.5,692C 731.323,689.322 728.323,686.488 725.5,683.5C 716.019,676.455 706.185,675.455 696,680.5C 694.442,679.655 693.442,680.321 693,682.5C 692.439,681.978 691.772,681.645 691,681.5C 686.214,684.305 681.048,686.138 675.5,687C 670.31,691.922 665.476,697.089 661,702.5C 660.202,700.741 660.369,699.074 661.5,697.5C 664.245,694.921 666.411,691.921 668,688.5C 673.286,684.272 679.12,680.772 685.5,678C 684.207,677.51 682.873,677.343 681.5,677.5C 696.228,672.429 711.228,671.595 726.5,675C 736.346,682.091 746.013,689.424 755.5,697C 758.614,700.06 761.114,703.56 763,707.5C 768.074,711.75 772.907,716.083 777.5,720.5 Z"/></g>
<g><path style="opacity:1" fill="#dadbdf" d="M 486.5,737.5 C 486.762,735.436 487.929,734.103 490,733.5C 490.333,733.833 490.667,734.167 491,734.5C 492.067,733.809 493.234,733.309 494.5,733C 493.289,732.107 493.289,731.274 494.5,730.5C 495.72,729.289 496.887,729.289 498,730.5C 498.333,729.833 498.667,729.167 499,728.5C 500.388,729.554 501.888,729.72 503.5,729C 502.304,728.346 502.304,727.846 503.5,727.5C 504.831,728.166 506.331,728.166 508,727.5C 513.889,728.955 519.223,731.955 524,736.5C 525.11,738.808 525.61,741.141 525.5,743.5C 525.182,744.647 524.516,745.481 523.5,746C 524.634,747.016 524.301,747.683 522.5,748C 522.833,748.333 523.167,748.667 523.5,749C 521.208,750.382 518.875,750.882 516.5,750.5C 514.508,748.366 513.174,749.032 512.5,752.5C 513.376,754.876 515.042,756.376 517.5,757C 515.122,757.974 515.456,758.641 518.5,759C 517.833,759.333 517.167,759.667 516.5,760C 520.31,764.563 519.81,768.73 515,772.5C 513.598,770.027 512.098,770.027 510.5,772.5C 508.246,770.027 506.08,770.027 504,772.5C 503.626,771.584 503.126,770.75 502.5,770C 503.624,769.751 504.624,769.251 505.5,768.5C 505,768.167 504.5,767.833 504,767.5C 498.059,769.362 494.392,773.362 493,779.5C 487.134,779.967 480.967,779.967 474.5,779.5C 473.304,779.154 473.304,778.654 474.5,778C 470.562,777.786 467.728,775.953 466,772.5C 464.657,773.214 463.324,772.88 462,771.5C 461.131,774.763 459.797,775.096 458,772.5C 457.282,773.451 456.449,773.617 455.5,773C 454.315,771.647 452.981,770.48 451.5,769.5C 452.025,768.808 452.692,768.308 453.5,768C 451.152,767.654 449.319,766.487 448,764.5C 442.653,767.425 438.487,765.759 435.5,759.5C 436.242,758.713 437.075,758.047 438,757.5C 440.632,757.293 442.965,757.626 445,758.5C 446.449,757.386 447.783,756.386 449,755.5C 449.414,755.957 449.914,756.291 450.5,756.5C 454.436,753.949 458.269,753.949 462,756.5C 462.604,754.314 463.77,754.148 465.5,756C 464.044,756.423 463.544,757.256 464,758.5C 465.333,757.167 466.667,757.167 468,758.5C 468.853,756.875 469.853,756.542 471,757.5C 472.582,756.04 473.915,754.373 475,752.5C 478.472,754.419 481.805,754.419 485,752.5C 488.72,753.668 492.22,752.502 495.5,749C 494.244,743.585 491.244,739.752 486.5,737.5 Z"/></g>
<g><path style="opacity:1" fill="#898a8d" d="M 811.5,687.5 C 811.833,687.5 812.167,687.5 812.5,687.5C 812.5,696.5 812.5,705.5 812.5,714.5C 811.505,726.989 811.171,739.656 811.5,752.5C 810.167,730.833 810.167,709.167 811.5,687.5 Z"/></g>
<g><path style="opacity:1" fill="#dadbde" d="M 682.5,716.5 C 683.931,716.881 684.764,717.881 685,719.5C 685.915,718.672 686.581,717.672 687,716.5C 688.645,716.693 690.479,716.86 692.5,717C 690.745,717.72 689.911,718.887 690,720.5C 690.725,719.941 691.558,719.608 692.5,719.5C 696.594,720.382 700.594,721.549 704.5,723C 705.126,723.75 705.626,724.584 706,725.5C 709.062,723.87 710.729,724.87 711,728.5C 712.087,726.068 712.587,726.402 712.5,729.5C 711.07,729.421 709.736,729.754 708.5,730.5C 709.089,732.373 708.422,734.04 706.5,735.5C 704.578,736.711 702.745,738.044 701,739.5C 701.195,741.126 701.195,742.793 701,744.5C 700.667,743.833 700.333,743.167 700,742.5C 698.839,746.826 696.005,749.159 691.5,749.5C 690.201,748.91 689.368,747.91 689,746.5C 687.513,747.253 687.346,748.086 688.5,749C 684.495,750.981 683.162,753.648 684.5,757C 683.833,758 683.167,759 682.5,760C 685.393,760.501 687.893,761.667 690,763.5C 691.558,762.655 692.558,763.321 693,765.5C 693.333,764.833 693.667,764.167 694,763.5C 696.032,765.773 698.532,767.44 701.5,768.5C 702.944,767.62 704.444,766.62 706,765.5C 708.333,765.833 710.667,766.167 713,766.5C 714.396,765.606 715.896,764.939 717.5,764.5C 720.735,765.031 723.902,765.698 727,766.5C 729.88,765.779 732.88,765.445 736,765.5C 739.669,767.404 743.335,768.404 747,768.5C 752.033,767.277 757.033,765.277 762,762.5C 764.813,764.588 767.48,766.921 770,769.5C 770.879,767.021 772.379,765.021 774.5,763.5C 773.652,761.591 773.318,759.591 773.5,757.5C 775.685,757.112 777.518,756.112 779,754.5C 781.464,755.439 783.964,756.439 786.5,757.5C 786.833,756.833 787.167,756.167 787.5,755.5C 788.086,755.709 788.586,756.043 789,756.5C 789.49,755.207 789.657,753.873 789.5,752.5C 790.822,752.67 791.989,752.337 793,751.5C 797.912,753.018 800.912,756.351 802,761.5C 801.801,775.444 801.968,789.111 802.5,802.5C 799.298,801.974 796.131,801.974 793,802.5C 791.716,803.572 791.383,804.905 792,806.5C 791.282,805.549 790.449,805.383 789.5,806C 791.519,810.389 790.186,813.222 785.5,814.5C 784.5,814.167 783.833,813.5 783.5,812.5C 784.5,811.667 785.5,810.833 786.5,810C 784.213,808.573 783.88,806.739 785.5,804.5C 784.726,803.289 783.893,803.289 783,804.5C 780.617,801.964 777.95,800.631 775,800.5C 773.848,798.351 772.348,796.518 770.5,795C 771.484,792.268 770.484,790.268 767.5,789C 768.833,786.667 768.167,785.667 765.5,786C 764.965,788.109 763.965,788.609 762.5,787.5C 760.513,789.327 758.179,790.327 755.5,790.5C 755.646,792.942 754.813,793.609 753,792.5C 752,793.167 751,793.833 750,794.5C 748.204,793.233 746.371,793.233 744.5,794.5C 744.167,793.833 743.833,793.167 743.5,792.5C 742.808,793.025 742.308,793.692 742,794.5C 737.675,792.12 733.008,790.787 728,790.5C 720.31,790.288 712.81,790.621 705.5,791.5C 704.522,791.023 703.689,790.357 703,789.5C 701.333,789.5 699.667,789.5 698,789.5C 696.031,787.613 693.698,786.28 691,785.5C 689.512,787.82 687.679,787.987 685.5,786C 686.411,781.354 685.244,777.187 682,773.5C 681.667,774.5 681.333,775.5 681,776.5C 680.581,775.328 679.915,774.328 679,773.5C 678,774.833 677,776.167 676,777.5C 674.869,776.396 674.035,776.729 673.5,778.5C 673.709,779.086 674.043,779.586 674.5,780C 673.183,781.659 671.517,782.826 669.5,783.5C 668.749,784.376 668.249,785.376 668,786.5C 666.434,787.061 665.101,786.394 664,784.5C 663.333,785.167 662.667,785.833 662,786.5C 659.254,784.963 656.921,782.963 655,780.5C 654.667,780.833 654.333,781.167 654,781.5C 654.148,780.175 653.982,779.008 653.5,778C 655.679,777.558 656.345,776.558 655.5,775C 656.469,773.242 657.636,772.742 659,773.5C 661.48,771.834 664.313,771.001 667.5,771C 669.32,770.021 670.487,768.521 671,766.5C 672,766.5 673,766.5 674,766.5C 674.5,765.5 675,764.5 675.5,763.5C 675.062,762.494 674.396,762.494 673.5,763.5C 672.289,762.726 672.289,761.893 673.5,761C 670.348,759.43 667.181,758.93 664,759.5C 662.075,757.099 659.908,755.932 657.5,756C 656.833,754.333 656.167,752.667 655.5,751C 656.833,750 658.167,749 659.5,748C 658.396,746.869 658.729,746.035 660.5,745.5C 661.192,746.025 661.692,746.692 662,747.5C 662.196,745.714 663.029,744.381 664.5,743.5C 667.165,744.848 669.831,745.181 672.5,744.5C 673.852,746.636 675.518,746.97 677.5,745.5C 679.378,746.642 681.212,747.642 683,748.5C 683.637,746.697 684.803,745.364 686.5,744.5C 685.109,744.891 684.109,744.058 683.5,742C 686.544,741.641 686.878,740.974 684.5,740C 684.306,738.57 684.306,737.07 684.5,735.5C 683.335,734.416 682.002,733.583 680.5,733C 680.833,732.667 681.167,732.333 681.5,732C 680.707,730.915 680.04,729.748 679.5,728.5C 681.552,726.207 682.219,723.707 681.5,721C 682.167,720.333 682.833,719.667 683.5,719C 682.748,718.329 682.414,717.496 682.5,716.5 Z"/></g>
<g><path style="opacity:1" fill="#cdcfd3" d="M 765.5,816.5 C 742.827,817.577 720.161,818.911 697.5,820.5C 690.816,820.357 684.149,820.023 677.5,819.5C 646.83,819.576 616.163,819.909 585.5,820.5C 579.5,820.5 573.5,820.5 567.5,820.5C 564.695,819.681 561.695,819.181 558.5,819C 559.025,818.308 559.692,817.808 560.5,817.5C 569.171,818.475 578.004,818.808 587,818.5C 589.077,817.983 591.077,817.316 593,816.5C 598.513,816.222 603.846,816.555 609,817.5C 609.75,816.874 610.584,816.374 611.5,816C 612.496,812.365 613.496,808.698 614.5,805C 613.268,802.973 613.602,801.64 615.5,801C 614.675,798.23 614.341,795.563 614.5,793C 616.473,791.286 618.306,788.786 620,785.5C 623.675,787.252 627.675,788.252 632,788.5C 635.621,786.859 638.955,786.526 642,787.5C 643.011,787.108 643.511,786.441 643.5,785.5C 645.111,786.32 645.778,787.654 645.5,789.5C 647.124,789.36 648.29,790.027 649,791.5C 651.333,791.5 653.667,791.5 656,791.5C 657.586,792.376 659.086,793.376 660.5,794.5C 663.002,794.379 665.668,794.212 668.5,794C 669.931,793.535 671.097,792.701 672,791.5C 673.13,792.114 674.463,792.114 676,791.5C 681.002,793.837 686.002,796.17 691,798.5C 691.667,797.167 692.333,797.167 693,798.5C 693.333,797.833 693.667,797.167 694,796.5C 695.016,797.634 695.683,797.301 696,795.5C 699.101,795.805 701.934,797.305 704.5,800C 706.556,800.311 708.556,800.811 710.5,801.5C 711.086,801.291 711.586,800.957 712,800.5C 712.519,801.516 713.353,802.182 714.5,802.5C 717.645,802.181 720.478,801.181 723,799.5C 725.234,799.374 727.568,799.707 730,800.5C 730.667,799.833 731.333,799.167 732,798.5C 732.317,800.301 732.984,800.634 734,799.5C 738.582,805.549 744.249,806.882 751,803.5C 752.667,804.167 754.333,804.833 756,805.5C 756.333,805.167 756.667,804.833 757,804.5C 757.853,806.125 758.853,806.458 760,805.5C 760.998,809.493 763.165,812.659 766.5,815C 765.944,815.383 765.611,815.883 765.5,816.5 Z"/></g>
<g><path style="opacity:1" fill="#626265" d="M 812.5,714.5 C 812.827,747.844 813.327,781.177 814,814.5C 813.261,816.221 812.427,817.887 811.5,819.5C 809.518,818.377 807.518,818.377 805.5,819.5C 804.508,819.672 803.842,819.338 803.5,818.5C 806.054,817.612 808.721,817.279 811.5,817.5C 812.681,795.855 812.681,774.189 811.5,752.5C 811.171,739.656 811.505,726.989 812.5,714.5 Z"/></g>
<g><path style="opacity:1" fill="#727376" d="M 401.5,626.5 C 401.5,631.833 401.5,637.167 401.5,642.5C 401.312,682.837 401.145,723.171 401,763.5C 401.545,780.66 403.378,797.66 406.5,814.5C 421.698,814.487 436.865,815.154 452,816.5C 459.171,816.26 466.338,815.926 473.5,815.5C 494.896,816.155 516.229,817.655 537.5,820C 547.494,820.5 557.494,820.666 567.5,820.5C 573.5,820.5 579.5,820.5 585.5,820.5C 587.607,821.468 589.941,821.802 592.5,821.5C 563.608,822.786 534.608,821.953 505.5,819C 472.464,818.984 439.464,817.984 406.5,816C 405.107,814.829 404.273,813.329 404,811.5C 401.613,795.912 399.946,780.245 399,764.5C 399.143,735.839 399.309,707.172 399.5,678.5C 400.167,661.167 400.833,643.833 401.5,626.5 Z"/></g>
<g><path style="opacity:1" fill="#58595c" d="M 677.5,819.5 C 675.393,820.468 673.059,820.802 670.5,820.5C 656.088,820.184 641.755,820.518 627.5,821.5C 615.833,821.5 604.167,821.5 592.5,821.5C 589.941,821.802 587.607,821.468 585.5,820.5C 616.163,819.909 646.83,819.576 677.5,819.5 Z"/></g>
<g><path style="opacity:1" fill="#d8d9dc" d="M 670.5,820.5 C 675.363,821.266 680.363,821.932 685.5,822.5C 671.967,822.442 658.301,822.775 644.5,823.5C 638.702,822.874 633.036,822.207 627.5,821.5C 641.755,820.518 656.088,820.184 670.5,820.5 Z"/></g>
<g><path style="opacity:1" fill="#717275" d="M 765.5,816.5 C 771.448,817.602 777.448,818.269 783.5,818.5C 790.024,819.732 796.691,819.732 803.5,818.5C 803.842,819.338 804.508,819.672 805.5,819.5C 800.577,820.954 795.411,821.621 790,821.5C 778.185,820.294 766.352,819.294 754.5,818.5C 731.532,820.413 708.532,821.746 685.5,822.5C 680.363,821.932 675.363,821.266 670.5,820.5C 673.059,820.802 675.393,820.468 677.5,819.5C 684.149,820.023 690.816,820.357 697.5,820.5C 720.161,818.911 742.827,817.577 765.5,816.5 Z"/></g>
</svg>
